<svg width="47" height="47" viewBox="0 0 47 47" fill="none" xmlns="http://www.w3.org/2000/svg">
<path d="M42.0194 19.8854C42.2603 21.1759 42.3915 22.5252 42.3915 23.9333C42.3915 34.9469 35.0203 42.7783 23.8872 42.7783C21.3554 42.7791 18.8482 42.281 16.509 41.3125C14.1697 40.3439 12.0443 38.924 10.254 37.1337C8.46373 35.3434 7.04377 33.218 6.07524 30.8787C5.10671 28.5395 4.6086 26.0323 4.60938 23.5005C4.6086 20.9687 5.10671 18.4615 6.07524 16.1223C7.04377 13.783 8.46373 11.6575 10.254 9.86728C12.0443 8.07702 14.1697 6.65705 16.509 5.68852C18.8482 4.71999 21.3554 4.22189 23.8872 4.22266C29.0925 4.22266 33.4419 6.13791 36.7789 9.24774L31.3445 14.6821V14.6684C29.3216 12.7414 26.7542 11.7524 23.8872 11.7524C17.5265 11.7524 12.3565 17.1261 12.3565 23.4887C12.3565 29.8494 17.5265 35.2348 23.8872 35.2348C29.6584 35.2348 33.5868 31.935 34.3937 27.4035H23.8872V19.8854H42.0214H42.0194Z" fill="white"/>
</svg>
