<svg width="63" height="63" viewBox="0 0 63 63" fill="none" xmlns="http://www.w3.org/2000/svg">
<path d="M50.7574 47.3051C50.5544 47.2497 50.3083 47.2805 50.0253 47.3851C46.2355 49.12 42.5502 50.3566 38.9696 51.0888C31.2361 52.6638 23.6994 51.8394 16.3658 48.6217C14.3294 47.7234 11.4993 46.21 7.8756 44.0689C7.78223 43.9952 7.66832 43.9522 7.54953 43.9459C7.42648 43.9397 7.32189 43.952 7.22346 44.0013C7.12502 44.0505 7.05119 44.112 6.99582 44.192C6.94045 44.272 6.92814 44.3827 6.97121 44.5242C7.00812 44.6596 7.10041 44.8134 7.25422 44.9795C7.89406 45.7301 8.68771 46.5299 9.62902 47.3789C10.5703 48.2279 11.8193 49.1877 13.3758 50.2582C14.9323 51.3287 16.5627 52.2823 18.2546 53.1129C19.9527 53.9435 21.9214 54.6448 24.167 55.2108C26.4126 55.7769 28.6582 56.0599 30.8977 56.0599C33.1248 56.0599 35.2905 55.8322 37.3884 55.3893C39.4925 54.9401 41.2644 54.411 42.7102 53.7958C44.1498 53.1867 45.4787 52.5038 46.6969 51.7655C47.9151 51.0272 48.8133 50.3997 49.3978 49.9014C49.9822 49.3969 50.4006 49.0031 50.6405 48.7078C50.9236 48.3571 51.0651 48.0557 51.0651 47.7911C51.0712 47.5143 50.9605 47.3543 50.7574 47.3051ZM32.4481 21.416C31.5129 21.496 30.387 21.6683 29.0643 21.9267C27.7415 22.1789 26.5172 22.4988 25.3852 22.8741C24.2531 23.2494 23.0965 23.7724 21.9214 24.4368C20.7402 25.1013 19.7373 25.8642 18.9068 26.7132C18.0762 27.5622 17.3994 28.6266 16.8703 29.9124C16.3412 31.1921 16.0767 32.601 16.0767 34.1391C16.0767 35.8063 16.3658 37.2891 16.9565 38.5995C17.5409 39.91 18.3223 40.9374 19.3067 41.7003C20.2849 42.4632 21.3985 43.06 22.6289 43.4968C23.8594 43.9336 25.1637 44.1305 26.5172 44.0751C27.8707 44.0197 29.1935 43.8105 30.4793 43.4414C31.759 43.0784 32.9649 42.4939 34.0846 41.7003C35.2043 40.9066 36.121 39.9653 36.8408 38.8887C37.1054 39.2947 37.3392 39.5962 37.5484 39.7931L38.0836 40.3406C38.4405 40.7036 38.988 41.2389 39.7263 41.9464C40.4584 42.6539 41.209 43.343 41.9596 44.0197L48.3826 37.8735L48.0135 37.5721C47.7489 37.369 47.4352 37.0799 47.0783 36.6923C46.7215 36.3108 46.3647 35.8863 46.0201 35.4311C45.6695 34.9758 45.368 34.4405 45.1157 33.8376C44.8635 33.2347 44.7343 32.6502 44.7343 32.0842V15.9158C44.7343 15.2944 44.6174 14.6238 44.3836 13.8979C44.1437 13.178 43.7253 12.3905 43.1101 11.5415C42.4948 10.6925 41.732 9.92959 40.8214 9.26514C39.9047 8.60068 38.6865 8.03467 37.1546 7.57939C35.6288 7.12412 33.9185 6.89648 32.0359 6.89648C30.1102 6.89648 28.3198 7.12412 26.6464 7.56709C24.9791 8.01621 23.5518 8.61299 22.3582 9.36357C21.1708 10.1142 20.1495 10.9816 19.3005 11.9722C18.4515 12.9627 17.8178 13.9963 17.4056 15.0729C16.9934 16.1496 16.7842 17.2386 16.7842 18.3398L25.1022 19.072C25.4405 18.063 25.8958 17.1894 26.4557 16.4388C27.0217 15.6882 27.557 15.1468 28.043 14.8084C28.5352 14.47 29.0643 14.1993 29.6241 13.9963C30.1902 13.7933 30.5716 13.6887 30.7685 13.6641C30.9654 13.6456 31.1192 13.6395 31.2361 13.6395C32.8787 13.6395 34.0169 14.1255 34.6568 15.0914C35.0567 15.6759 35.2535 16.5618 35.2535 17.7554V21.2376C34.3184 21.2745 33.3832 21.336 32.4481 21.416ZM35.2597 30.7614C35.2597 31.7827 35.1243 32.7117 34.8598 33.53C34.2938 35.3203 33.2171 36.4462 31.636 36.9015C30.2578 37.3075 28.9474 37.1045 27.7046 36.2985C26.3819 35.4372 25.7236 34.219 25.7236 32.6502C25.7236 31.4259 26.0312 30.38 26.6464 29.5063C27.2616 28.6389 28.0799 27.9867 29.1073 27.5561C30.1348 27.1254 31.1376 26.8178 32.122 26.6394C33.1002 26.4548 34.1523 26.344 35.2597 26.3071V30.7614ZM55.8823 44.2289C55.6178 43.8967 54.9041 43.6813 53.7352 43.5706C52.5662 43.4599 51.5511 43.466 50.6775 43.5952C49.7362 43.706 48.7641 43.9767 47.7674 44.4196C46.7646 44.8564 46.3278 45.2256 46.4385 45.5147L46.4816 45.5947L46.5369 45.6378L46.6231 45.6501H46.9061C46.9553 45.6501 47.0168 45.6439 47.1029 45.6378C47.1891 45.6316 47.2691 45.6193 47.3429 45.6132C47.4167 45.607 47.5213 45.5947 47.6567 45.5886C47.7859 45.5824 47.9089 45.564 48.0258 45.5455C48.0443 45.5455 48.2534 45.5271 48.6595 45.4901C49.0655 45.4532 49.3609 45.4286 49.5393 45.4102C49.7177 45.3917 50.0192 45.3732 50.4314 45.3548C50.8436 45.3363 51.1758 45.3363 51.4219 45.3548C51.668 45.3732 51.9448 45.3979 52.2586 45.4225C52.5724 45.4471 52.8246 45.5024 53.0215 45.5886C53.2184 45.6686 53.366 45.7731 53.4583 45.9023C53.7782 46.3084 53.7167 47.2066 53.2738 48.6032C52.8308 49.9998 52.4124 51.1134 52.0187 51.9378C51.8464 52.2885 51.8464 52.5038 52.0187 52.5961C52.1909 52.6884 52.4309 52.6022 52.7508 52.35C53.7106 51.5994 54.5104 50.4674 55.1564 48.9478C55.5317 48.0495 55.8024 47.1144 55.9623 46.1361C56.11 45.1579 56.0854 44.5242 55.8823 44.2289Z" fill="white"/>
</svg>
