<svg width="63" height="63" viewBox="0 0 63 63" fill="none" xmlns="http://www.w3.org/2000/svg">
<path d="M53.1832 20.4753C52.1387 18.6283 50.6464 17.0736 48.8437 15.9544C47.0409 14.8351 44.9857 14.1872 42.867 14.0703C40.3702 14.1805 37.9995 15.1979 36.1995 16.9316C34.7111 18.2792 33.3733 19.7842 32.2095 21.4203C30.95 19.7656 29.5154 18.2518 27.9307 16.9053C25.8351 15.0795 23.1501 14.0727 20.3707 14.0703C18.1527 14.2281 16.0111 14.9467 14.147 16.1589C12.2828 17.3711 10.7572 19.037 9.71321 21.0003C6.8022 25.7385 5.25781 31.1893 5.25071 36.7503C5.23796 38.1989 5.39656 39.644 5.72321 41.0553C5.98684 42.3139 6.45695 43.5202 7.11446 44.6253C7.90682 45.9883 9.06351 47.1034 10.4546 47.8453C11.8457 48.5873 13.4161 48.9266 14.9895 48.8253C18.2707 48.8253 20.7382 47.3553 23.652 43.5753C25.835 40.5853 27.775 37.4252 29.4532 34.1253L31.107 31.1853C31.2645 30.9491 31.3957 30.7128 31.527 30.4766L31.9207 31.1328L36.6195 39.0078C38.1233 41.6332 39.9294 44.0736 42.0007 46.2791C42.8715 47.1595 43.9169 47.8479 45.0698 48.3C46.2226 48.7521 47.4573 48.9579 48.6945 48.9041C49.9854 48.9541 51.2688 48.6857 52.4316 48.1227C53.5943 47.5596 54.6007 46.7191 55.362 45.6753C55.5378 45.4426 55.6958 45.1969 55.8345 44.9403C56.1525 44.4133 56.4247 43.8601 56.6482 43.2866L56.9632 42.3678C57.3154 41.3961 57.579 40.3945 57.7507 39.3753C57.7994 38.501 57.7994 37.6246 57.7507 36.7503C57.862 30.9942 56.2732 25.333 53.1832 20.4753ZM26.6182 29.8203C24.9382 32.4453 22.497 36.4091 20.397 39.2966C17.772 42.8928 16.4332 43.2603 14.9632 43.2603C14.3503 43.2718 13.7459 43.1167 13.2142 42.8116C12.6826 42.5065 12.2437 42.0628 11.9445 41.5278C11.2092 40.159 10.8556 38.6177 10.9207 37.0653C10.862 32.3365 12.116 27.6841 14.5432 23.6253C15.1107 22.5594 15.9321 21.6496 16.9348 20.9766C17.9374 20.3036 19.0905 19.888 20.292 19.7666C21.4586 19.821 22.5984 20.1343 23.629 20.6836C24.6596 21.233 25.5552 22.0047 26.2507 22.9428C27.1921 24.0368 28.0687 25.185 28.8757 26.3816L26.6182 29.8203ZM48.7207 43.2603C47.4607 43.2603 46.4895 42.7616 45.0982 41.0816C42.836 38.0197 40.767 34.8198 38.9032 31.5003L37.5382 29.2428C36.5932 27.6416 35.6745 26.1978 34.9132 24.9116C35.0465 24.6659 35.1955 24.4292 35.3595 24.2028C37.827 20.5541 40.0057 18.5066 42.7095 18.5066C44.0768 18.627 45.392 19.0891 46.5341 19.8505C47.6762 20.6119 48.6087 21.6482 49.2457 22.8641C51.7122 27.1163 52.9567 31.9671 52.842 36.8816C52.737 40.3203 51.9495 43.2603 48.7207 43.2603Z" fill="white"/>
</svg>
