<svg width="21" height="21" viewBox="0 0 21 21" fill="none" xmlns="http://www.w3.org/2000/svg">
<path d="M10.9727 0.541016C5.44981 0.541016 0.972656 5.01817 0.972656 10.541C0.972656 16.0639 5.44981 20.541 10.9727 20.541C16.4955 20.541 20.9727 16.0639 20.9727 10.541C20.9662 5.02083 16.4928 0.547445 10.9727 0.541016Z" fill="#5243C2" fill-opacity="0.15"/>
<path d="M16.7468 7.37439L11.0426 15.1152C10.9066 15.2957 10.7037 15.414 10.4796 15.4434C10.2555 15.4729 10.029 15.4111 9.85095 15.2719L5.77762 12.0152C5.41817 11.7276 5.35997 11.203 5.64762 10.8436C5.93527 10.4841 6.45984 10.4259 6.81929 10.7136L10.216 13.4311L15.4051 6.38856C15.5753 6.13321 15.872 5.99204 16.1775 6.02109C16.4829 6.05013 16.7477 6.2447 16.8667 6.52753C16.9857 6.81037 16.9396 7.13571 16.7468 7.37439Z" fill="#BB6BD9"/>
</svg>
