<svg width="75" height="75" viewBox="0 0 75 75" fill="none" xmlns="http://www.w3.org/2000/svg">
<path d="M0 18.9443V56.0576H37.9031L75 18.9443H0ZM10.207 25.8537H10.2188C12.9164 25.8537 16.2 26.6131 18.5789 27.8318L16.0172 32.3014C13.4039 31.0334 12.0984 30.9232 10.6102 30.8365C8.4 30.7146 7.28906 31.5092 7.26328 32.3623C7.25156 33.4029 9.36328 34.3404 11.3531 34.9873C14.3555 35.9412 18.1875 37.2209 18.7758 40.9217L24.2812 26.3717H30.675L37.1227 43.7904L37.0969 26.3717H44.5055C51.5625 26.3717 54.8813 28.7623 54.8813 34.2443C54.8813 39.1639 51.4781 42.1076 45.7031 42.1076H43.3219L43.2867 48.649L32.0812 48.6373L31.3008 45.7943C30.0596 46.201 28.7607 46.4037 27.4547 46.3943C26.1118 46.4022 24.7766 46.1924 23.5008 45.7732L22.3875 48.6396L16.1367 48.6514L16.418 47.21C16.3271 47.2915 16.2333 47.3697 16.1367 47.4443C14.4773 48.785 12.3656 49.4107 9.77812 49.4576H9.10547C6.28078 49.491 3.49888 48.7658 1.05 47.3576L3.33047 42.8295C5.79609 44.2943 7.35 44.6107 9.43594 44.5756C10.5211 44.5498 11.3016 44.3529 11.8148 43.8279C12.1197 43.5176 12.2948 43.1027 12.3047 42.6678C12.3258 41.4959 10.643 40.9498 8.60391 40.3123C6.94453 39.799 5.05078 39.0936 3.58594 38.0061C1.84219 36.7381 0.998437 35.1256 1.04766 32.8568C1.05826 31.2496 1.69271 29.7092 2.81719 28.5607C4.44141 26.8756 7.05469 25.8607 10.2047 25.8607L10.207 25.8537ZM43.3102 31.0662V37.0264H44.9484C47.107 37.0264 48.8414 36.3045 48.8414 34.01C48.8414 31.7881 47.107 31.0662 44.9484 31.0662H43.3102ZM27.4148 33.4709L25.0828 40.842C25.8359 41.1234 26.6343 41.264 27.4383 41.2568C28.282 41.2568 29.0766 41.1092 29.7563 40.8654L27.4617 33.4568L27.4148 33.4709Z" fill="white"/>
</svg>
