<svg width="130" height="59" viewBox="0 0 130 59" fill="none" xmlns="http://www.w3.org/2000/svg">
<path d="M56.1245 31.8555H64.7478L60.2412 24.6549L51.8724 37.6681H48.0103L58.1828 22.0012C58.4482 21.7459 58.7462 21.5173 59.0603 21.3205L59.082 21.3099C59.4202 21.1037 59.8106 20.9949 60.2087 20.9961H60.2412C60.6121 21.0009 60.9735 21.1118 61.2812 21.3152L61.2757 21.3099C61.6008 21.5067 61.9024 21.7386 62.1749 22.0012L72.3474 37.6681H68.4853L66.6816 34.7645H58.0582L56.1245 31.8555ZM95.5091 34.7645V21.2461H92.2916V36.078C92.2916 36.2908 92.3403 36.4928 92.427 36.6736L92.4216 36.663C92.5203 36.8512 92.6502 37.022 92.8062 37.1682C92.8963 37.3417 93.0488 37.4763 93.2341 37.5458H93.2395C93.4586 37.6304 93.692 37.6737 93.9274 37.6734H108.617L110.421 34.7698L95.5091 34.7645ZM42.3499 32.2331H42.4312C43.9532 32.2331 45.3345 31.6322 46.342 30.6536C46.8705 30.1723 47.292 29.5889 47.58 28.94C47.868 28.2912 48.0164 27.5909 48.0157 26.8832V26.6492C48.0159 25.9329 47.8675 25.224 47.5798 24.5657C47.292 23.9075 46.8709 23.3136 46.342 22.8202C45.8277 22.3177 45.2176 21.9196 44.5466 21.6486C43.8756 21.3776 43.1567 21.239 42.4312 21.2407H28.1853V37.6681H31.4191V24.1497H42.182C42.9078 24.1497 43.5578 24.4422 44.0291 24.9102C44.2739 25.1472 44.4684 25.4295 44.6014 25.7407C44.7343 26.052 44.8031 26.3861 44.8037 26.7236V26.8087V26.8034C44.7991 27.4897 44.5233 28.1475 44.0345 28.6381C43.7988 28.8973 43.51 29.1047 43.1871 29.2468C42.8641 29.3888 42.5142 29.4623 42.1603 29.4624H32.952L42.6045 37.6788H47.2357L40.7953 32.2437L42.3499 32.2331ZM8.36574 37.6681H8.32241C6.04741 37.6681 3.98908 36.7481 2.51574 35.2697C1.72235 34.5398 1.09031 33.6576 0.658872 32.6778C0.227437 31.698 0.00583283 30.6415 0.00782582 29.5741V29.3348C0.00782582 27.0906 0.971992 25.0697 2.51574 23.6445L2.52116 23.6392C3.27757 22.8784 4.18161 22.2742 5.17988 21.8622C6.17814 21.4503 7.25038 21.239 8.33324 21.2407H18.2945C20.5641 21.2407 22.6116 22.1607 24.0795 23.6392C25.5907 25.0803 26.5224 27.0906 26.5224 29.3188V29.4571V29.4518V29.5741C26.5224 31.8077 25.5799 33.8232 24.0687 35.2644C23.3179 36.0251 22.4187 36.6295 21.4248 37.0416C20.4308 37.4536 19.3626 37.6649 18.2837 37.6628H18.1428H18.1482L8.36574 37.6681ZM17.8991 34.7645H18.0291C18.7273 34.7655 19.4182 34.6259 20.0593 34.3542C20.7003 34.0825 21.2777 33.6846 21.7557 33.185C22.7453 32.2111 23.3005 30.8913 23.2995 29.5156V29.3188C23.3004 28.6407 23.1645 27.9692 22.8995 27.343C22.6345 26.7169 22.2458 26.1485 21.7557 25.6706C21.2691 25.1895 20.6901 24.8079 20.0523 24.5477C19.4145 24.2876 18.7306 24.1541 18.0399 24.155H17.8882H17.8937H8.56074C7.15956 24.154 5.81527 24.6991 4.82324 25.6706C4.31475 26.1414 3.90972 26.7093 3.63305 27.3394C3.35639 27.9696 3.21395 28.6486 3.21449 29.3348V29.4677V29.4624V29.4996C3.214 30.1892 3.35582 30.8718 3.63138 31.5061C3.90694 32.1404 4.31054 32.7134 4.81783 33.1903C5.30261 33.6901 5.88585 34.0878 6.53209 34.3593C7.17833 34.6309 7.87406 34.7705 8.57699 34.7698H8.61491L17.8991 34.7645ZM79.037 37.6681H78.9016C76.632 37.6681 74.5845 36.7481 73.1166 35.2697C72.3418 34.5326 71.7261 33.6498 71.3064 32.6739C70.8867 31.6981 70.6715 30.6493 70.6737 29.59V29.3241C70.6737 27.0959 71.6107 25.0857 73.1166 23.6445C73.8674 22.8838 74.7666 22.2793 75.7605 21.8673C76.7544 21.4552 77.8227 21.2439 78.9016 21.2461H79.0424H79.037H90.6178L88.6841 24.1497H79.0912C77.69 24.1487 76.3457 24.6938 75.3537 25.6653C74.8452 26.1361 74.4401 26.704 74.1635 27.3341C73.8868 27.9642 73.7444 28.6433 73.7449 29.3295V29.4624V29.4571V29.4943C73.7444 30.1839 73.8862 30.8665 74.1618 31.5008C74.4374 32.1351 74.841 32.708 75.3482 33.185C75.833 33.6848 76.4163 34.0825 77.0625 34.354C77.7087 34.6255 78.4045 34.7652 79.1074 34.7645H90.8453L88.9116 37.6681H79.037ZM118.292 34.7645H118.248C117.082 34.7652 115.954 34.3601 115.063 33.6211L115.069 33.6264C114.165 32.9208 113.496 31.9675 113.146 30.8876L113.135 30.8451H126.904L128.708 27.9414H113.135C113.487 26.8353 114.153 25.9153 115.036 25.2505L115.047 25.2399C115.948 24.542 117.063 24.1635 118.21 24.1656H127.798L129.732 21.262H118.015C115.746 21.262 113.698 22.182 112.23 23.6604C111.456 24.3976 110.84 25.2804 110.42 26.2562C110 27.232 109.785 28.2808 109.787 29.3401V29.4784V29.473V29.606C109.787 31.8342 110.724 33.8445 112.23 35.2856C113.698 36.7694 115.746 37.6841 118.015 37.6841H118.156H118.151H128.047L129.981 34.7804L118.292 34.7645Z" fill="white"/>
</svg>
