<svg width="542" height="436" viewBox="0 0 542 436" fill="none" xmlns="http://www.w3.org/2000/svg">
<rect x="45.5" y="20.5" width="375" height="297" rx="16.5" stroke="#A2A2A2" stroke-opacity="0.76" stroke-width="3" stroke-dasharray="2 6"/>
<path fill-rule="evenodd" clip-rule="evenodd" d="M541.239 218.543C543.79 285.801 461.1 312.474 411.85 353.955C372.037 387.487 336.24 426.937 286.054 433.474C229.238 440.874 172.475 426.619 125.625 391.235C68.0816 347.775 -5.63368 293.823 1.47338 218.543C8.5462 143.625 98.2607 121.424 155.224 77.7118C197.367 45.3735 234.394 -3.19289 286.054 0.165257C336.177 3.42346 362.677 60.1157 401.983 93.7523C451.132 135.812 538.678 151.011 541.239 218.543Z" fill="#F3EDFE" fill-opacity="0.1"/>
<path d="M300.869 60.8979L115.958 104.504L102.32 132.574L160.234 370.877L364.497 322.706L300.869 60.8979Z" fill="#F6F4FF"/>
<path d="M115.966 104.504L102.32 132.574L115.883 188.394C140.305 135.36 190.63 99.2538 238.487 75.6089L115.966 104.504Z" fill="#E8E7F7"/>
<path d="M102.32 132.574L126.299 122.025L115.958 104.504L102.32 132.574Z" fill="white"/>
<path d="M288.658 110.876L220.664 126.894L238.827 201.702L306.821 185.684L288.658 110.876Z" fill="#E8E7F7"/>
<path d="M279.001 169.735L275.035 169.694L270.174 171.07L269.32 174.738L266.919 171.82L261.941 172.702L258.402 174.474L246.789 184.504L250.178 198.803L264.526 195.498L282.958 191.262L297.307 187.957L293.918 173.666L279.001 169.735Z" fill="#3E3D5E"/>
<path d="M268.337 194.624L280.209 191.896L280.41 171.227L269.558 173.724L269.324 174.737L268.663 173.93L258.062 176.369L268.337 194.624Z" fill="#E8E7F7"/>
<path d="M266.953 183.249L268.433 180.904C268.937 180.104 269.744 179.534 270.676 179.32C271.607 179.106 272.586 179.265 273.399 179.762L275.779 181.219L272.396 186.581L266.953 183.249Z" fill="#3E3D5E"/>
<path d="M277.623 192.49L271.758 183.944L270.344 194.163L277.623 192.49Z" fill="#3E3D5E"/>
<path d="M278.307 173.065C278.926 175.669 275.471 178.686 270.601 179.806C265.732 180.927 261.289 179.74 260.653 177.128C260.017 174.515 263.49 171.507 268.367 170.386C273.245 169.265 277.688 170.469 278.307 173.065Z" fill="#EDB29A"/>
<path d="M260.664 166.612L262.212 173.123C262.409 173.97 262.774 174.77 263.286 175.478C263.799 176.185 264.448 176.786 265.197 177.245C265.945 177.705 266.779 178.014 267.649 178.155C268.52 178.296 269.41 178.267 270.269 178.068C271.129 177.873 271.941 177.514 272.66 177.009C273.378 176.505 273.988 175.865 274.454 175.128C274.921 174.39 275.235 173.569 275.378 172.711C275.521 171.854 275.491 170.977 275.289 170.131L273.75 163.628L260.664 166.612Z" fill="#EDB29A"/>
<path d="M261.285 169.331C266.907 172.265 271.659 172.916 275.349 172.628C275.474 171.805 275.44 170.966 275.249 170.155L273.709 163.653L260.641 166.653L261.285 169.331Z" fill="#D88D87"/>
<path d="M278.669 146.815C281.179 157.488 276.995 167.592 267.959 169.661C258.923 171.729 250.615 164.526 248.08 153.854C245.545 143.181 250.732 137.016 259.727 134.948C268.721 132.879 276.142 136.151 278.669 146.815Z" fill="#EDB29A"/>
<path d="M275.919 140.182C272.346 134.841 266.481 133.383 259.721 134.94C253.756 136.308 249.48 139.481 248.008 144.575C262.164 152.882 271.275 146.009 275.919 140.182Z" fill="#D88D87"/>
<path d="M246.461 153.013C246.461 153.013 244.788 145.027 248.436 141.005L255.246 142.835L249.214 146.774V153.887L246.461 153.013Z" fill="#3E3D5E"/>
<path d="M278.856 145.571C278.856 145.571 276.722 137.7 271.677 135.681L266.406 140.296L273.56 141.121L276.773 147.491L278.856 145.571Z" fill="#3E3D5E"/>
<path d="M259.875 152.634C259.964 153.01 259.938 153.404 259.8 153.765C259.661 154.126 259.418 154.439 259.099 154.664C258.78 154.889 258.401 155.016 258.009 155.029C257.618 155.042 257.231 154.94 256.898 154.736C256.565 154.532 256.3 154.236 256.138 153.884C255.976 153.533 255.924 153.142 255.987 152.761C256.051 152.38 256.227 152.026 256.495 151.743C256.762 151.461 257.109 151.263 257.491 151.175C257.744 151.117 258.008 151.108 258.265 151.149C258.522 151.191 258.769 151.282 258.99 151.417C259.211 151.553 259.404 151.73 259.556 151.939C259.707 152.148 259.816 152.384 259.875 152.634Z" fill="#34344F"/>
<path d="M271.438 149.98C271.526 150.357 271.5 150.75 271.362 151.111C271.224 151.473 270.98 151.786 270.661 152.011C270.343 152.236 269.964 152.363 269.572 152.375C269.18 152.388 268.793 152.286 268.46 152.082C268.127 151.879 267.863 151.582 267.701 151.231C267.539 150.879 267.486 150.488 267.55 150.107C267.613 149.726 267.79 149.372 268.057 149.09C268.325 148.808 268.671 148.61 269.053 148.522C269.307 148.462 269.57 148.452 269.828 148.493C270.086 148.534 270.333 148.625 270.554 148.761C270.776 148.897 270.968 149.074 271.12 149.284C271.272 149.493 271.38 149.73 271.438 149.98Z" fill="#34344F"/>
<path d="M264.336 149.197L263.993 154.381L260.914 154.859C260.914 154.859 261.6 157.76 264.378 157.76L262.487 155.667L265.265 155.461L264.336 149.197Z" fill="#D88D87"/>
<path d="M275.896 150.12C276.105 153.17 277.962 155.568 280.079 155.486C282.196 155.403 283.677 152.865 283.426 149.816C283.175 146.766 281.359 144.368 279.284 144.45C277.209 144.533 275.678 147.079 275.896 150.12Z" fill="#EDB29A"/>
<path d="M278.071 149.931C277.755 149.947 277.448 150.047 277.184 150.219C277.188 150.17 277.188 150.12 277.184 150.071C277.05 148.06 278.021 146.379 279.418 146.321C280.815 146.263 282.02 147.854 282.162 149.865C282.256 150.508 282.18 151.163 281.943 151.769C281.705 152.375 281.314 152.911 280.807 153.326C280.606 151.389 279.41 149.881 278.071 149.931Z" fill="#D88D87"/>
<path d="M251.612 155.708C252.792 158.527 252.206 161.477 250.307 162.302C248.408 163.126 245.906 161.477 244.726 158.692C243.547 155.906 244.132 152.923 246.032 152.099C247.931 151.275 250.416 152.882 251.612 155.708Z" fill="#EDB29A"/>
<path d="M249.576 156.491C249.865 156.366 250.183 156.32 250.496 156.36L250.446 156.219C249.66 154.357 248.011 153.285 246.756 153.838C245.501 154.39 245.083 156.31 245.92 158.206C246.13 158.814 246.494 159.36 246.976 159.793C247.459 160.225 248.046 160.53 248.681 160.678C247.953 158.898 248.354 157.027 249.576 156.491Z" fill="#D88D87"/>
<path d="M270.021 158.09C266.88 159.457 263.463 160.097 260.031 159.961C260.569 161.033 261.457 161.896 262.553 162.41C263.648 162.925 264.888 163.06 266.072 162.796C267.214 162.652 268.257 162.085 268.99 161.212C269.723 160.338 270.092 159.222 270.021 158.09Z" fill="#34344F"/>
<path d="M261.017 161.337L261.168 160.719L260.641 159.986C263.71 160.017 266.756 159.449 269.601 158.312L269.233 159.475L269.702 160.043C269.404 160.787 268.91 161.439 268.27 161.93C267.629 162.422 266.867 162.735 266.062 162.837C265.162 163.05 264.22 163.024 263.333 162.76C262.447 162.497 261.647 162.005 261.017 161.337Z" fill="#FBF2EB"/>
<path d="M269.433 159.672C268.355 160.367 267.141 160.833 265.869 161.04C263.083 161.625 261.686 161.197 261.125 160.933L261.175 160.719C264.806 161.617 269.241 159.441 269.241 159.441L269.433 159.672Z" fill="#DACEEA"/>
<path d="M254.419 150.071C256.024 148.955 257.878 148.237 259.824 147.978L258.879 145.802C258.879 145.802 255.532 146.997 253.75 148.95L254.419 150.071Z" fill="#3E3D5E"/>
<path d="M271.189 146.172C269.248 145.869 267.261 146.033 265.399 146.65L265.273 144.285C265.273 144.285 268.813 143.898 271.281 144.87L271.189 146.172Z" fill="#3E3D5E"/>
<path d="M274.534 137.651C274.534 137.651 266.435 144.038 256.019 144.574C245.602 145.11 243.469 141.195 243.469 140C243.469 138.805 245.142 137.989 246.464 138.451C246.464 138.451 242.858 134.19 245.075 131.347C247.292 128.503 251.877 129.739 253.818 132.723C253.818 132.723 252.245 130.292 253.735 129.336C255.224 128.38 257.249 129.13 258.094 131.553C258.077 131.553 272.2 127.572 274.534 137.651Z" fill="#4C4C72"/>
<path d="M274.151 136.349C263.375 140.223 259.535 135.146 258.188 131.528C259.877 131.101 261.607 130.852 263.35 130.786C264.789 133.399 267.667 136.25 273.097 134.404C273.537 135.002 273.892 135.656 274.151 136.349Z" fill="#60608C"/>
<path d="M280.41 171.227L276.628 168.977L275.064 169.512L270.47 178.998L262.087 172.496L260.447 172.702L258.062 176.369L265.818 186.111L270.746 180.16L277.833 183.342L280.41 171.227Z" fill="#F6F4FF"/>
<path d="M206.585 131.585L127.703 150.168L130.558 161.927L209.44 143.344L206.585 131.585Z" fill="#AEAED6"/>
<path d="M212.155 153.08L133.273 171.663L134.153 175.286L213.035 156.703L212.155 153.08Z" fill="#5002A8"/>
<path d="M214.929 165.006L136.047 183.589L136.926 187.212L215.808 168.629L214.929 165.006Z" fill="#5002A8"/>
<path d="M217.702 176.924L138.82 195.507L139.7 199.13L218.582 180.547L217.702 176.924Z" fill="#5002A8"/>
<path d="M220.483 188.851L141.602 207.434L142.481 211.057L221.363 192.474L220.483 188.851Z" fill="#5002A8"/>
<path d="M223.265 200.76L144.383 219.343L145.262 222.966L224.144 204.383L223.265 200.76Z" fill="#5002A8"/>
<path d="M312.932 204.992L247.438 220.148L250.291 231.901L315.785 216.753L312.932 204.992Z" fill="#AEAED6"/>
<path d="M318.486 226.495L252.992 241.642L253.862 245.261L319.365 230.113L318.486 226.495Z" fill="#5002A8"/>
<path d="M321.268 238.412L255.766 253.56L256.644 257.186L322.147 242.03L321.268 238.412Z" fill="#5002A8"/>
<path d="M324.042 250.329L258.539 265.485L259.426 269.103L324.92 253.955L324.042 250.329Z" fill="#5002A8"/>
<path d="M326.823 262.255L261.32 277.403L262.199 281.021L327.701 265.873L326.823 262.255Z" fill="#5002A8"/>
<path d="M329.596 274.172L264.094 289.32L264.972 292.946L330.475 277.798L329.596 274.172Z" fill="#5002A8"/>
<path d="M170.641 232.828L152.117 237.452L156.811 255.699L175.335 251.075L170.641 232.828Z" fill="white"/>
<path d="M171.695 236.92L154.083 245.079L152.117 237.448L170.641 232.824L171.695 236.92Z" fill="#E4EAF4"/>
<path d="M156.814 257.755C156.349 257.753 155.898 257.599 155.532 257.317C155.165 257.035 154.904 256.641 154.79 256.197L150.096 237.951C149.969 237.425 150.057 236.872 150.34 236.409C150.623 235.947 151.079 235.613 151.61 235.478L170.134 230.838C170.667 230.713 171.229 230.799 171.699 231.078C172.168 231.357 172.508 231.807 172.644 232.33L177.338 250.577C177.465 251.102 177.377 251.655 177.094 252.118C176.811 252.58 176.354 252.915 175.823 253.049L157.308 257.673C157.147 257.718 156.981 257.746 156.814 257.755ZM154.664 238.94L158.329 253.189L172.795 249.571L169.13 235.322L154.664 238.94Z" fill="#9B9BBA"/>
<path d="M178.595 238.502C178.082 238.507 177.584 238.325 177.198 237.992C176.812 237.659 176.563 237.197 176.5 236.695C176.437 236.193 176.564 235.686 176.856 235.27C177.148 234.854 177.586 234.558 178.085 234.439L225.206 222.695C225.474 222.629 225.753 222.615 226.026 222.654C226.3 222.694 226.563 222.786 226.8 222.926C227.037 223.065 227.245 223.25 227.41 223.468C227.575 223.687 227.694 223.935 227.762 224.199C227.829 224.463 227.844 224.738 227.803 225.007C227.763 225.277 227.67 225.536 227.528 225.77C227.386 226.003 227.199 226.207 226.977 226.37C226.755 226.533 226.503 226.651 226.235 226.717L179.114 238.461C178.943 238.496 178.769 238.509 178.595 238.502Z" fill="#5002A8"/>
<path d="M180.124 244.535C179.617 244.532 179.127 244.346 178.748 244.014C178.369 243.681 178.125 243.225 178.063 242.728C178 242.232 178.123 241.73 178.409 241.317C178.694 240.903 179.122 240.606 179.614 240.48L220.786 230.22C221.053 230.153 221.33 230.139 221.602 230.178C221.874 230.217 222.135 230.308 222.371 230.446C222.608 230.585 222.814 230.768 222.978 230.985C223.143 231.202 223.262 231.449 223.33 231.711C223.397 231.974 223.412 232.247 223.372 232.515C223.332 232.783 223.24 233.04 223.099 233.273C222.959 233.506 222.773 233.709 222.552 233.871C222.332 234.032 222.082 234.15 221.815 234.217L180.643 244.469C180.474 244.515 180.299 244.537 180.124 244.535Z" fill="#5002A8"/>
<path d="M166.47 249.299L160.823 245.178C160.467 244.917 160.23 244.527 160.166 244.094C160.102 243.662 160.215 243.222 160.48 242.871C160.745 242.52 161.141 242.287 161.58 242.224C162.019 242.16 162.466 242.272 162.822 242.533L165.374 244.404L177.364 222.679C177.586 222.316 177.943 222.051 178.358 221.94C178.774 221.829 179.218 221.88 179.596 222.083C179.975 222.286 180.259 222.625 180.39 223.029C180.521 223.433 180.489 223.872 180.3 224.253L166.47 249.299Z" fill="#5000AE"/>
<path d="M179.055 267.993L160.531 272.617L165.225 290.864L183.749 286.24L179.055 267.993Z" fill="white"/>
<path d="M180.125 272.078L162.513 280.245L160.547 272.614L179.071 267.982L180.125 272.078Z" fill="#E4EAF4"/>
<path d="M165.236 292.913C164.772 292.913 164.321 292.76 163.955 292.48C163.588 292.199 163.327 291.807 163.211 291.364L158.518 273.117C158.391 272.592 158.478 272.038 158.762 271.576C159.045 271.113 159.501 270.779 160.032 270.645L178.556 266.021C179.092 265.886 179.661 265.966 180.137 266.244C180.613 266.527 180.958 266.983 181.099 267.513L185.793 285.759C185.922 286.285 185.836 286.839 185.552 287.302C185.268 287.765 184.811 288.099 184.279 288.232L165.755 292.855C165.586 292.899 165.411 292.918 165.236 292.913ZM163.086 274.098L166.742 288.347L181.208 284.737L177.535 270.488L163.086 274.098Z" fill="#9B9BBA"/>
<path d="M187.023 273.694C186.515 273.69 186.026 273.505 185.647 273.173C185.267 272.84 185.024 272.383 184.961 271.887C184.899 271.391 185.022 270.889 185.307 270.475C185.592 270.062 186.021 269.764 186.512 269.639L233.625 257.895C233.891 257.828 234.168 257.814 234.44 257.853C234.712 257.892 234.974 257.983 235.21 258.122C235.446 258.26 235.653 258.443 235.817 258.66C235.981 258.877 236.101 259.124 236.168 259.387C236.236 259.649 236.25 259.922 236.211 260.19C236.171 260.458 236.079 260.716 235.938 260.948C235.797 261.181 235.612 261.384 235.391 261.546C235.171 261.708 234.92 261.825 234.654 261.892L187.541 273.636C187.371 273.675 187.197 273.695 187.023 273.694Z" fill="#5002A8"/>
<path d="M188.572 279.701C188.058 279.706 187.561 279.524 187.175 279.191C186.788 278.858 186.54 278.396 186.477 277.894C186.414 277.392 186.54 276.885 186.833 276.469C187.125 276.053 187.562 275.757 188.061 275.638L229.234 265.378C229.5 265.311 229.777 265.297 230.049 265.336C230.321 265.375 230.583 265.466 230.819 265.605C231.055 265.743 231.261 265.926 231.426 266.143C231.59 266.36 231.71 266.607 231.777 266.869C231.845 267.132 231.859 267.405 231.82 267.673C231.78 267.941 231.687 268.198 231.547 268.431C231.406 268.664 231.22 268.867 231 269.029C230.78 269.191 230.529 269.308 230.263 269.375L189.091 279.636C188.921 279.678 188.747 279.7 188.572 279.701Z" fill="#5002A8"/>
<path d="M174.903 284.465L169.247 280.287C169.057 280.163 168.896 280.002 168.772 279.814C168.647 279.627 168.563 279.416 168.524 279.195C168.486 278.975 168.493 278.748 168.546 278.53C168.599 278.313 168.697 278.108 168.833 277.928C168.969 277.749 169.141 277.598 169.338 277.486C169.535 277.374 169.753 277.303 169.979 277.277C170.205 277.251 170.434 277.271 170.652 277.335C170.87 277.399 171.072 277.506 171.246 277.65L173.756 279.521L185.738 257.812C185.949 257.428 186.308 257.142 186.734 257.017C187.16 256.893 187.619 256.94 188.009 257.149C188.4 257.358 188.69 257.711 188.816 258.13C188.943 258.55 188.894 259.002 188.683 259.387L174.903 284.465Z" fill="#5000AE"/>
<path d="M187.5 303.149L168.977 307.772L173.671 326.019L192.195 321.395L187.5 303.149Z" fill="white"/>
<path d="M188.555 307.244L170.943 315.404L168.977 307.772L187.5 303.148L188.555 307.244Z" fill="#E4EAF4"/>
<path d="M173.674 328.088C173.208 328.087 172.757 327.933 172.39 327.651C172.023 327.369 171.762 326.975 171.649 326.53L166.955 308.308C166.828 307.783 166.916 307.229 167.199 306.767C167.482 306.304 167.939 305.97 168.47 305.836L186.985 301.204C187.525 301.071 188.096 301.154 188.575 301.435C188.81 301.572 189.016 301.755 189.18 301.971C189.343 302.188 189.462 302.434 189.528 302.696L194.222 320.942C194.349 321.468 194.261 322.021 193.978 322.484C193.695 322.946 193.239 323.28 192.708 323.415L174.184 328.038C174.017 328.075 173.845 328.091 173.674 328.088ZM171.523 309.272L175.188 323.522L189.654 319.912L185.989 305.654L171.523 309.272Z" fill="#9B9BBA"/>
<path d="M195.452 308.827C194.945 308.824 194.456 308.638 194.076 308.306C193.697 307.974 193.453 307.517 193.391 307.02C193.328 306.524 193.451 306.022 193.737 305.609C194.022 305.195 194.45 304.898 194.942 304.772L242.046 293.028C242.572 292.923 243.119 293.022 243.574 293.304C244.028 293.585 244.355 294.028 244.487 294.54C244.62 295.053 244.547 295.596 244.284 296.057C244.021 296.518 243.588 296.861 243.075 297.017L195.954 308.761C195.791 308.806 195.622 308.828 195.452 308.827Z" fill="#5002A8"/>
<path d="M197.002 314.901C196.488 314.905 195.991 314.724 195.604 314.39C195.218 314.057 194.97 313.595 194.906 313.093C194.843 312.591 194.97 312.084 195.262 311.668C195.555 311.252 195.992 310.956 196.491 310.838L237.655 300.577C237.921 300.51 238.199 300.496 238.471 300.535C238.743 300.574 239.004 300.665 239.24 300.804C239.477 300.942 239.683 301.125 239.847 301.342C240.012 301.559 240.131 301.806 240.199 302.069C240.266 302.331 240.281 302.604 240.241 302.872C240.201 303.14 240.109 303.398 239.968 303.63C239.827 303.863 239.642 304.066 239.421 304.228C239.201 304.39 238.951 304.508 238.684 304.574L197.52 314.835C197.351 314.876 197.176 314.899 197.002 314.901Z" fill="#5002A8"/>
<path d="M183.337 319.632L177.69 315.511C177.334 315.25 177.098 314.86 177.033 314.427C176.969 313.994 177.082 313.554 177.347 313.203C177.612 312.853 178.008 312.62 178.447 312.557C178.887 312.493 179.333 312.604 179.69 312.865L182.241 314.736L194.231 293.036C194.453 292.673 194.81 292.408 195.226 292.297C195.642 292.186 196.085 292.237 196.463 292.44C196.842 292.643 197.126 292.982 197.257 293.386C197.389 293.791 197.356 294.229 197.168 294.611L183.337 319.632Z" fill="#5000AE"/>
<path d="M295.499 59.9915C294.733 58.8768 293.648 58.011 292.382 57.5036C291.116 56.9961 289.726 56.8698 288.387 57.1406C287.048 57.4114 285.821 58.0672 284.861 59.025C283.9 59.9828 283.25 61.1996 282.991 62.5216L282.464 65.2413L284.246 64.821L284.64 62.8348C284.765 62.1686 285.024 61.5338 285.402 60.9677C285.78 60.4016 286.269 59.9156 286.84 59.5382C287.697 58.9659 288.708 58.6568 289.743 58.65C290.779 58.6432 291.793 58.939 292.658 59.5C293.523 60.061 294.2 60.862 294.603 61.8018C295.006 62.7415 295.117 63.7779 294.922 64.7798L291.684 81.3287L289.802 90.9466C289.605 91.7586 289.098 92.4644 288.386 92.9169C287.674 93.3694 286.812 93.5336 285.979 93.3752C285.147 93.2168 284.41 92.7481 283.92 92.0668C283.43 91.3855 283.226 90.5443 283.351 89.7186L286.756 72.3125L285.083 71.9994L281.678 89.4054C281.553 90.0355 281.555 90.6836 281.686 91.3127C281.816 91.9417 282.071 92.5391 282.436 93.0707C282.802 93.6022 283.27 94.0574 283.815 94.4099C284.36 94.7625 284.97 95.0055 285.61 95.125C285.918 95.1874 286.232 95.2178 286.547 95.2157C287.698 95.2138 288.813 94.8184 289.701 94.0969C290.589 93.3754 291.196 92.3726 291.416 91.2598L293.475 80.7436L296.529 65.0847C296.707 64.2109 296.708 63.3108 296.532 62.4366C296.355 61.5623 296.004 60.7313 295.499 59.9915Z" fill="#FF4060"/>
<g style="mix-blend-mode:multiply" opacity="0.14">
<path d="M212.872 287.003C224.501 295.117 238.069 300.116 252.249 301.511C266.429 302.907 280.733 300.651 293.762 294.964C306.79 289.277 318.096 280.354 326.571 269.07C335.047 257.785 340.402 244.526 342.112 230.59L328.8 175.809C322.087 165.937 313.251 157.64 302.92 151.506C292.588 145.372 281.014 141.551 269.016 140.315C257.019 139.078 244.892 140.456 233.495 144.351C222.098 148.245 211.711 154.561 203.068 162.851C194.426 171.14 187.74 181.201 183.484 192.32C179.229 203.438 177.508 215.343 178.443 227.189C179.379 239.036 182.948 250.535 188.897 260.872C194.847 271.209 203.032 280.13 212.872 287.003Z" fill="#7991A5"/>
</g>
<path d="M333.352 256.625L433.082 315.568C435.38 316.926 437.383 318.716 438.978 320.837C440.573 322.957 441.729 325.366 442.378 327.927C443.028 330.487 443.16 333.148 442.766 335.759C442.371 338.369 441.459 340.877 440.081 343.14C438.702 345.404 436.885 347.377 434.732 348.948C432.58 350.519 430.134 351.658 427.535 352.298C424.936 352.938 422.234 353.068 419.584 352.679C416.934 352.291 414.388 351.392 412.09 350.034C411.214 349.503 410.376 348.914 409.58 348.271L320.057 275.111C317.829 273.279 316.384 270.687 316.01 267.852C315.636 265.017 316.361 262.147 318.039 259.815C319.718 257.482 322.227 255.859 325.066 255.268C327.906 254.676 330.867 255.161 333.36 256.625H333.352Z" fill="#683E38"/>
<path d="M347.237 269.49L428.259 317.884C430.024 318.927 431.564 320.302 432.789 321.931C434.015 323.56 434.903 325.41 435.402 327.377C435.902 329.344 436.003 331.388 435.701 333.394C435.398 335.399 434.698 337.326 433.639 339.065C432.58 340.804 431.185 342.32 429.531 343.527C427.878 344.735 425.999 345.609 424.002 346.101C422.005 346.593 419.93 346.693 417.894 346.395C415.858 346.097 413.902 345.407 412.137 344.364C411.467 343.955 410.827 343.5 410.221 343.004L337.046 283.666C335.342 282.257 334.239 280.267 333.955 278.094C333.672 275.92 334.228 273.721 335.515 271.933C336.802 270.145 338.725 268.9 340.901 268.444C343.077 267.989 345.348 268.356 347.262 269.474L347.237 269.49Z" fill="#784741"/>
<path d="M338.492 271.732L420.669 324.815" stroke="#935954" stroke-width="16" stroke-miterlimit="10" stroke-linecap="round"/>
<path d="M305.629 272.045L327.817 287.44C329.079 288.311 330.639 288.656 332.158 288.402C333.678 288.147 335.034 287.313 335.933 286.08L349.135 267.71C350.018 266.466 350.368 264.929 350.108 263.432C349.848 261.936 348.999 260.6 347.747 259.716L325.558 244.313C324.295 243.443 322.734 243.099 321.215 243.355C319.696 243.611 318.34 244.447 317.443 245.681L304.24 264.026C303.349 265.272 302.995 266.815 303.255 268.318C303.516 269.82 304.369 271.16 305.629 272.045Z" fill="#C7BFBF"/>
<path d="M338.316 253.164L326.703 245.104C325.44 244.233 323.881 243.888 322.361 244.142C320.842 244.397 319.486 245.231 318.587 246.464L305.384 264.809C304.501 266.054 304.152 267.591 304.412 269.087C304.672 270.584 305.52 271.919 306.773 272.804L318.378 280.855C327.653 273.766 334.591 264.131 338.316 253.164Z" fill="#A19A9A"/>
<path d="M335.433 251.153L323.82 243.093C322.558 242.222 320.998 241.877 319.479 242.132C317.959 242.386 316.603 243.22 315.704 244.453L302.502 262.799C301.619 264.043 301.269 265.58 301.529 267.077C301.789 268.573 302.638 269.908 303.89 270.793L315.495 278.853C324.774 271.764 331.712 262.125 335.433 251.153Z" fill="#706E6E"/>
<path d="M286.148 283.633C286.261 284.295 286.512 284.927 286.886 285.488C287.261 286.049 287.75 286.527 288.322 286.892C288.894 287.256 289.537 287.499 290.21 287.605C290.883 287.711 291.572 287.677 292.231 287.507C305.612 284.009 317.325 276 325.33 264.873C333.335 253.746 337.124 240.206 336.038 226.61C335.982 225.942 335.785 225.292 335.461 224.702C335.136 224.112 334.691 223.595 334.153 223.184C333.615 222.773 332.996 222.476 332.335 222.312C331.675 222.149 330.987 222.122 330.316 222.234L277.07 231.184L286.148 283.633Z" fill="#553530"/>
<path d="M312.778 250.617C313.141 250.114 313.692 249.774 314.31 249.67C314.928 249.567 315.562 249.709 316.074 250.065L322.951 254.862C321.802 256.823 320.553 258.746 319.203 260.631C317.831 262.535 316.375 264.356 314.861 266.095L307.983 261.298C307.475 260.941 307.131 260.399 307.026 259.793C306.921 259.186 307.064 258.563 307.423 258.06L312.778 250.617Z" fill="#706E6E"/>
<path d="M310.914 270.262C340.644 240.977 340.644 193.496 310.914 164.211C281.184 134.926 232.982 134.926 203.253 164.211C173.523 193.496 173.523 240.977 203.253 270.262C232.982 299.548 281.184 299.548 310.914 270.262Z" fill="#CACBCC"/>
<path d="M307.889 267.279C335.946 239.641 335.946 194.832 307.889 167.195C279.832 139.558 234.343 139.558 206.286 167.195C178.229 194.832 178.229 239.641 206.286 267.279C234.343 294.916 279.832 294.916 307.889 267.279Z" fill="#9CAAB5"/>
<path d="M305.329 264.755C331.972 238.512 331.971 195.962 305.329 169.718C278.687 143.475 235.492 143.475 208.849 169.718C182.207 195.962 182.207 238.512 208.849 264.755C235.492 290.999 278.687 290.999 305.329 264.755Z" fill="#EDE8E8"/>
<path d="M304.163 263.613C330.165 238 330.165 196.473 304.163 170.861C278.161 145.248 236.004 145.248 210.002 170.861C184.001 196.473 184 238 210.002 263.613C236.004 289.226 278.161 289.226 304.163 263.613Z" fill="#706E6E"/>
<path d="M303.097 262.552C328.504 237.525 328.504 196.948 303.097 171.921C277.69 146.894 236.497 146.894 211.09 171.921C185.682 196.948 185.682 237.525 211.09 262.552C236.497 287.58 277.69 287.58 303.097 262.552Z" fill="#E8E7F7"/>
<path d="M299.896 259.405C323.538 236.116 323.538 198.357 299.896 175.068C276.253 151.779 237.92 151.779 214.278 175.068C190.635 198.357 190.635 236.116 214.278 259.405C237.92 282.695 276.253 282.695 299.896 259.405Z" fill="#F6F4FF"/>
<g style="mix-blend-mode:color-dodge" opacity="0.2">
<path d="M229.29 258.785C230.433 265.426 232.632 271.848 235.808 277.814C248.131 282.005 261.447 282.453 274.033 279.103C286.618 275.752 297.891 268.755 306.393 259.02C314.895 249.285 320.234 237.259 321.717 224.501C323.201 211.743 320.761 198.839 314.713 187.463C304.032 183.824 292.574 182.988 281.465 185.037C270.356 187.086 259.981 191.95 251.36 199.149C242.74 206.348 236.171 215.635 232.301 226.095C228.431 236.554 227.393 247.826 229.29 258.801V258.785Z" fill="#E0E5E8"/>
</g>
<path d="M336.859 262.354L343.302 266.853" stroke="white" stroke-width="10" stroke-linecap="round" stroke-linejoin="round"/>
<g style="mix-blend-mode:color-dodge" opacity="0.62">
<path d="M288.054 175.818C286.765 180.763 276.901 182.551 266.016 179.807C255.131 177.062 247.367 170.815 248.655 165.87C249.944 160.925 259.808 159.129 270.685 161.873C281.561 164.618 289.317 170.865 288.054 175.818Z" fill="#E0E5E8"/>
</g>
<path d="M296.1 122.435L206.078 143.642L230.127 242.697L320.149 221.49L296.1 122.435Z" fill="#E8E7F7"/>
<path d="M283.324 200.344L278.078 200.286L271.636 202.116L270.515 206.962L267.327 203.105L260.734 204.275L256.049 206.616L240.688 219.901L245.172 238.832L264.164 234.455L288.57 228.843L307.57 224.475L303.078 205.552L283.324 200.344Z" fill="#3E3D5E"/>
<path d="M269.206 233.302L284.927 229.684L285.203 202.322L270.829 205.627L270.519 206.962L269.641 205.899L255.602 209.129L269.206 233.302Z" fill="#E8E7F7"/>
<path d="M267.375 218.249L269.95 214.168C270.455 213.368 271.261 212.798 272.193 212.584C273.124 212.37 274.104 212.529 274.916 213.026L279.066 215.567L274.588 222.665L267.375 218.249Z" fill="#3E3D5E"/>
<path d="M281.498 230.475L273.733 219.159L271.859 232.692L281.498 230.475Z" fill="#3E3D5E"/>
<path d="M272.178 213.708C278.631 212.224 283.2 208.229 282.384 204.785C281.568 201.341 275.675 199.752 269.223 201.236C262.77 202.719 258.201 206.714 259.017 210.158C259.833 213.602 265.726 215.191 272.178 213.708Z" fill="#EDB29A"/>
<path d="M259.031 196.223L261.073 204.836C261.61 207.096 263.036 209.054 265.038 210.279C267.039 211.505 269.453 211.897 271.749 211.371C274.042 210.84 276.027 209.435 277.27 207.463C278.512 205.491 278.909 203.115 278.375 200.855L276.333 192.234L259.031 196.223Z" fill="#EDB29A"/>
<path d="M259.885 199.808C267.331 203.698 273.614 204.555 278.5 204.168C278.672 203.071 278.629 201.952 278.375 200.871L276.333 192.234L259.031 196.223L259.885 199.808Z" fill="#D88D87"/>
<path d="M282.876 170.008C286.223 184.134 280.601 197.51 268.653 200.246C256.706 202.982 245.687 193.455 242.34 179.32C238.993 165.186 245.846 157.019 257.76 154.283C269.674 151.547 279.521 155.84 282.876 170.008Z" fill="#EDB29A"/>
<path d="M240.252 178.208C240.252 178.208 238.093 167.626 242.871 162.31L251.882 164.733L243.9 169.892V179.312L240.252 178.208Z" fill="#3E3D5E"/>
<path d="M283.092 168.351C283.092 168.351 280.264 157.925 273.588 155.238L266.602 161.345L276.081 162.491L280.323 170.922L283.092 168.351Z" fill="#3E3D5E"/>
<path d="M279.207 174.375C279.483 178.414 281.942 181.587 284.695 181.48C287.448 181.372 289.447 178.002 289.171 173.972C288.895 169.941 286.435 166.76 283.683 166.876C280.93 166.991 278.922 170.345 279.207 174.375Z" fill="#EDB29A"/>
<path d="M282.087 174.128C281.669 174.15 281.265 174.28 280.916 174.507C280.911 174.441 280.911 174.375 280.916 174.309C280.731 171.647 282.053 169.422 283.869 169.364C285.685 169.307 287.316 171.392 287.5 174.054C287.642 176.106 286.889 177.886 285.71 178.636C285.442 176.048 283.869 174.054 282.087 174.128Z" fill="#D88D87"/>
<path d="M247.055 181.776C248.612 185.509 247.842 189.432 245.324 190.528C242.805 191.625 239.467 189.498 237.936 185.757C236.405 182.015 237.141 178.1 239.659 176.996C242.178 175.892 245.491 178.034 247.055 181.776Z" fill="#EDB29A"/>
<path d="M244.36 182.806C244.743 182.646 245.161 182.587 245.574 182.633C245.574 182.576 245.532 182.51 245.507 182.452C244.469 179.979 242.286 178.57 240.621 179.295C238.956 180.021 238.445 182.592 239.483 185.064C240.269 186.96 241.75 188.229 243.147 188.361C242.21 185.996 242.737 183.515 244.36 182.806Z" fill="#D88D87"/>
<path d="M277.414 157.859C277.414 157.859 266.688 166.315 252.899 167.032C239.111 167.749 236.225 162.557 236.258 160.983C236.292 159.409 238.442 158.313 240.224 158.931C240.224 158.931 235.447 153.285 238.375 149.519C241.303 145.753 247.386 147.393 249.963 151.34C249.963 151.34 247.879 148.118 249.846 146.857C251.812 145.596 254.506 146.585 255.619 149.791C255.619 149.791 274.318 144.525 277.414 157.859Z" fill="#4C4C72"/>
<path d="M276.893 156.137C262.627 161.272 257.549 154.555 255.75 149.75C257.991 149.196 260.285 148.873 262.594 148.786C264.502 152.231 268.308 156.005 275.504 153.566C276.082 154.358 276.549 155.222 276.893 156.137Z" fill="#60608C"/>
<path d="M285.203 202.322L280.183 199.347L278.108 200.047L272.034 212.607L260.939 204.003L258.764 204.275L255.602 209.129L265.884 222.019L272.402 214.148L281.781 218.36L285.203 202.322Z" fill="#F6F4FF"/>
<path d="M328.252 247.032L241.531 267.092L245.313 282.66L332.033 262.6L328.252 247.032Z" fill="#AEAED6"/>
<path d="M304.163 263.613C330.165 238 330.165 196.473 304.163 170.861C278.161 145.248 236.004 145.248 210.002 170.861C184.001 196.473 184 238 210.002 263.613C236.004 289.226 278.161 289.226 304.163 263.613Z" stroke="#4C4C72" stroke-width="4" stroke-miterlimit="10"/>
</svg>
