<svg width="553" height="499" viewBox="0 0 553 499" fill="none" xmlns="http://www.w3.org/2000/svg">
<rect x="37.6328" y="101.105" width="415" height="214" rx="16.5" stroke="#A2A2A2" stroke-opacity="0.76" stroke-width="3" stroke-dasharray="2 6"/>
<path fill-rule="evenodd" clip-rule="evenodd" d="M72.9721 154.079C93.2059 105.398 164.459 115.413 215.329 103.194C256.452 93.3156 296.492 77.8269 336.556 90.763C381.914 105.408 420.096 135.421 443.828 176.973C472.977 228.009 510.885 292.165 480.713 343.163C450.685 393.914 375.6 378.261 318.167 389.363C275.678 397.577 231.705 419.112 193.787 398.63C156.998 378.756 155.659 329.193 137.05 291.525C113.781 244.424 52.656 202.957 72.9721 154.079Z" fill="#F3EDFE" fill-opacity="0.1"/>
<g clip-path="url(#clip0_909_6670)">
<path d="M83.4688 235.02C83.4688 235.02 85.9693 232.726 90.7462 236.883L92.9152 233.425C92.9152 233.425 87.5556 229.196 83.4688 235.02Z" fill="#5002A8"/>
<path d="M92.1586 224.958C92.1586 224.958 89.201 228.632 93.4582 232.825L90.5812 235.719C90.5812 235.719 83.9938 227.646 92.1586 224.958Z" fill="#5002A8"/>
<path d="M80.0156 323.994C83.1637 319.182 87.8581 315.586 93.3248 313.799L112.863 306.568H131.505L151.034 313.799C156.511 315.581 161.215 319.177 164.37 323.994H80.0156Z" fill="white"/>
<path d="M147.68 361.991H177.857C177.857 356.84 177.516 349.502 177.516 349.502C175.724 318.655 153.255 313.799 153.255 313.799C135.724 309.562 145.278 336.672 145.278 336.672C144.821 343.204 145.789 351.993 147.68 361.991Z" fill="#7A3AC0"/>
<path d="M135.019 288.265H109.422V313.217H135.019V288.265Z" fill="white"/>
<path d="M135.005 299.859V288.256H109.453V293.999C116.713 300.074 125.505 300.844 135.005 299.859Z" fill="#5002A8"/>
<path d="M162.271 361.992C162.763 348.553 162.611 344.843 162.486 340.256C162.226 330.034 160.039 321.397 153.299 313.808L135.052 307.859C135.052 307.859 138.888 314.579 122.119 314.579C122.119 314.579 111.068 314.149 109.455 307.859L90.9206 313.808C90.9206 313.808 75.075 317.706 72.3594 334.415L81.6803 351.482L81.3487 361.992H162.271Z" fill="#9756DF"/>
<path d="M154.906 257.069C155.632 251.335 154.413 245.843 154.467 240.181C154.467 236.391 153.767 230.657 149.089 230.182C142.546 229.51 140.53 240.799 140.127 245.7C139.589 252.437 141.265 259.73 142.564 266.306C143.03 268.689 142.986 273.473 145.665 274.602C147.969 275.588 150.308 273.267 151.482 271.547C154.269 267.408 154.269 261.88 154.906 257.069Z" fill="#5002A8"/>
<path d="M150.061 284.789C147.471 294.904 142.891 297.699 142.891 297.699L136.779 298.891C133.256 298.443 127.198 297.009 127.198 297.009C113.234 292.261 109.192 290.98 107.023 285.676C106.934 285.452 96.0174 247.59 96.0174 247.59C94.2249 228.094 114.668 224.045 117.751 223.57C120.798 222.862 140.229 217.468 145.974 236.175C145.974 236.113 154.452 257.821 150.061 284.789Z" fill="white"/>
<path d="M156.481 217.298C157.583 223.355 156.552 231.732 151.856 235.593C146.765 239.786 142.392 238.648 136.261 240.001C129.889 241.417 123.373 241.981 116.965 243.217C112.484 244.113 107.304 244.588 105.242 249.337C102.554 255.608 101.971 263.824 103.817 269.943C105.341 275.041 105.807 280.004 107.492 286.643C103.553 283.195 100.093 279.236 97.2032 274.871C94.3173 269.8 94.3173 269.8 91.0639 260.966C89.1549 255.796 87.4789 251.245 87.2549 245.905C86.9412 239.025 90.2752 236.05 93.9498 229.707C97.4093 223.758 102.294 219.646 108.568 217.755C108.568 217.755 140.599 219.547 139.999 212.245C139.999 212.245 147.698 214.207 146.272 219.323C146.272 219.323 154.339 217.854 152.618 212.245C153.592 212.754 154.443 213.47 155.11 214.343C155.778 215.216 156.245 216.225 156.481 217.298Z" fill="#5002A8"/>
<path d="M105.094 268.617C105.094 268.617 101.643 261.1 96.2207 265.553C96.2207 265.553 93.7471 267.479 96.7943 272.514C96.7943 272.514 101.204 279.745 106.501 275.74L105.094 268.617Z" fill="white"/>
<path d="M104.554 251.093C104.554 251.093 104.554 264.532 107.045 271.699L104.419 272.219C104.419 272.219 103.039 262.991 98.2891 262.883L104.554 251.093Z" fill="#5002A8"/>
<path d="M98.2103 361.991H70.0234C70.0234 361.991 70.122 355.299 70.14 354.824C70.2518 348.218 70.8509 341.63 71.9324 335.113C73.6084 325.858 78.0896 317.643 88.0379 315.277C92.5819 314.193 96.615 316.944 99.0707 320.653C99.0707 320.68 103.561 326.208 98.2103 361.991Z" fill="#7A3AC0"/>
<path d="M359.697 304.383C355.055 302.699 352.124 298.811 346.603 299.294C336.789 300.19 329.826 311.192 320.379 303.711C308.952 294.645 311.955 240.145 316.911 227.79C321.114 217.326 328.858 227.557 339.917 224.045C352.769 219.951 363.847 230.084 370.488 240.611C377.516 251.899 380.82 265.108 379.935 278.374C378.994 290.254 376.852 310.61 359.697 304.383Z" fill="#5002A8"/>
<path d="M403.548 361.992H379.457L375.146 344.611C375.146 344.611 371.651 318.216 389.755 317.849C389.755 317.849 399.148 324.434 401.711 339.925C401.711 339.925 403.736 352.298 403.548 361.992Z" fill="#7A3AC0"/>
<path d="M319.88 361.991L323.134 348.875C323.134 348.875 326.629 322.49 308.525 322.113C308.525 322.113 297.671 330.024 298.621 361.991H319.88Z" fill="#7A3AC0"/>
<path d="M360.055 279.691H338.07V311.864H360.055V279.691Z" fill="white"/>
<path d="M360.055 292.816V279.691H338.07V298.595C345.321 298.38 353.925 297.036 360.055 292.816Z" fill="#5002A8"/>
<path d="M308.945 322.122C311.944 317.541 316.419 314.121 321.627 312.428L340.197 305.547H357.934L380.645 312.428C385.855 314.122 390.332 317.542 393.336 322.122H308.945Z" fill="white"/>
<path d="M313.49 361.991H386.677L386.211 348.247L396.966 331.968C396.367 327.501 394.516 323.295 391.626 319.835C388.737 316.376 384.927 313.805 380.636 312.419L362.712 307.33C362.712 307.33 363.778 313.145 349.017 313.145C349.017 313.145 337.169 313.145 335.744 307.169L321.583 312.419C314.758 314.888 309.057 319.74 305.531 326.082L313.445 348.247L313.49 361.991Z" fill="#9756DF"/>
<path d="M362.448 282.253C361.688 284.04 360.579 285.657 359.186 287.011C355.544 290.537 351.268 293.346 346.585 295.289C340.84 297.645 332.164 297.977 327.593 293.21C323.892 289.376 321.857 283.57 320.253 278.589C317.125 268.895 317.17 258.314 317.959 248.253C318.147 245.959 318.38 243.665 318.756 241.39C322.341 219.448 341.163 219.493 341.163 219.493C355.341 218.875 368.292 225.577 370.47 240.521C371.303 246.237 370.201 252.383 369.914 258.108C369.792 262.319 369.095 266.494 367.844 270.516C366.428 274.638 364.16 278.302 362.448 282.253Z" fill="white"/>
<path d="M316.492 261.199C311.196 244.794 315.471 225.505 321.807 219.466C339.732 202.354 372.893 208.867 383.021 235.593C386.149 243.854 384.679 274.665 383.263 284.135C381.363 296.83 376.693 305.52 367.059 305.52C367.31 295.056 366.512 283.463 367.435 270.678C368.358 257.893 366.673 257.669 356.106 251.765C351.395 249.226 347.412 245.525 344.536 241.013C340.494 235.109 343.532 233.049 335.574 233.317C335.493 233.317 316.905 232.681 316.492 261.199Z" fill="#5002A8"/>
<path d="M364.29 265.518C364.29 265.518 366.163 257.714 372.168 260.939C372.168 260.939 374.857 262.31 372.921 267.677C372.921 267.677 370.071 275.382 364.281 272.569L364.29 265.518Z" fill="white"/>
<path d="M421.172 323.994C424.327 319.177 429.031 315.581 434.508 313.799L454.037 306.568H472.688L492.217 313.799C497.694 315.581 502.398 319.177 505.553 323.994H421.172Z" fill="white"/>
<path d="M488.828 361.991H519.04C519.04 356.84 518.699 349.502 518.699 349.502C516.907 318.655 494.438 313.799 494.438 313.799C476.899 309.562 486.461 336.672 486.461 336.672C485.969 343.204 486.936 351.993 488.828 361.991Z" fill="#7A3AC0"/>
<path d="M476.144 288.265H450.547V313.217H476.144V288.265Z" fill="white"/>
<path d="M476.151 299.859V288.256H450.555V293.999C457.85 300.074 466.651 300.844 476.151 299.859Z" fill="#5002A8"/>
<path d="M503.412 361.992C503.896 348.553 503.753 344.843 503.627 340.256C503.358 330.034 501.181 321.397 494.432 313.808L476.184 307.859C476.184 307.859 480.02 314.579 463.252 314.579C463.252 314.579 452.201 314.149 450.588 307.859L432.053 313.808C432.053 313.808 416.208 317.706 413.492 334.415L422.804 351.527L422.473 362.036L503.412 361.992Z" fill="#9756DF"/>
<path d="M493.826 251.092C493.826 245.161 493.575 239.248 493.719 233.317C493.799 229.536 494.149 230.513 489.766 230.092C483.69 229.518 481.7 240.843 481.225 245.69C480.643 252.427 482.121 259.675 483.224 266.234C483.627 268.608 483.511 273.356 485.993 274.467C488.117 275.426 490.331 273.079 491.451 271.34C494.015 267.354 493.566 261.252 493.728 256.719C493.799 254.846 493.826 252.965 493.826 251.092Z" fill="#5002A8"/>
<path d="M491.2 284.788C488.619 294.903 484.03 297.699 484.03 297.699L477.918 298.89C474.405 298.442 468.337 297.009 468.337 297.009C454.383 292.26 450.332 290.979 448.172 285.675C448.082 285.451 437.166 247.589 437.166 247.589C435.373 228.094 455.79 224.044 458.873 223.534C461.92 222.826 481.351 217.432 487.096 236.139C487.123 236.112 495.601 257.821 491.2 284.788Z" fill="white"/>
<path d="M435.092 229.698C428.316 232.968 428.083 239.016 428.397 245.897C428.648 251.272 430.297 255.752 432.197 260.957C435.459 269.791 435.459 269.791 438.345 274.862C441.233 279.226 444.69 283.185 448.625 286.635C446.949 279.996 446.483 275.032 444.95 269.935C443.113 263.806 443.651 255.6 446.384 249.328C446.384 249.328 447.926 245.144 454.271 243.953L435.092 229.707" fill="#5000AE"/>
<path d="M446.244 268.617C446.244 268.617 442.794 261.1 437.371 265.553C437.371 265.553 434.898 267.479 437.936 272.514C437.936 272.514 442.354 279.745 447.651 275.74L446.244 268.617Z" fill="white"/>
<path d="M445.693 251.093C445.693 251.093 445.693 264.532 448.194 271.699L445.568 272.219C445.568 272.219 444.188 262.991 439.438 262.883L445.693 251.093Z" fill="#5000AE"/>
<path d="M497.179 222.279C519.003 244.49 452.976 244.266 452.976 244.266C452.976 244.266 446.057 247.464 435.052 229.698C435.052 229.698 432.094 215.802 463.31 211.43C463.346 211.43 483.986 208.894 497.179 222.279Z" fill="#5002A8"/>
<path d="M439.354 361.991H411.141C411.141 361.991 411.239 355.298 411.257 354.824C411.365 348.218 411.964 341.63 413.05 335.113C414.744 325.84 419.252 317.616 429.182 315.259C433.726 314.175 437.759 316.926 440.215 320.635C440.215 320.68 444.705 326.208 439.354 361.991Z" fill="#7A3AC0"/>
<path d="M221.104 217.298C221.104 217.298 197.55 224.376 199.773 261.656V341.994H226.562L221.104 217.298Z" fill="#5002A8"/>
<path d="M218.422 241.38V356.794H269.651V259.577C269.651 259.577 273.021 222.279 248.536 217.692C248.536 217.692 218.422 212.245 218.422 241.38Z" fill="#5002A8"/>
<path d="M252.751 315.286H217.125V332.918H252.751V315.286Z" fill="white"/>
<path d="M292.037 361.992H267.946L263.617 344.611C263.617 344.611 260.112 318.216 278.217 317.849C278.217 317.849 287.618 324.434 290.172 339.925C290.199 339.925 292.234 352.298 292.037 361.992Z" fill="white"/>
<path d="M208.369 361.991L211.632 348.875C211.632 348.875 217.395 319.587 199.282 319.22C199.282 319.22 186.17 330.025 187.12 361.991H208.387" fill="white"/>
<path d="M248.538 279.691H226.562V311.864H248.538V279.691Z" fill="white"/>
<path d="M248.538 292.816V279.691H226.562V298.595C233.813 298.38 242.417 297.036 248.538 292.816Z" fill="#5002A8"/>
<path d="M197.422 322.122C200.423 317.543 204.896 314.124 210.104 312.428L228.656 305.539H246.384L269.103 312.419C274.323 314.109 278.808 317.533 281.812 322.122H197.422Z" fill="white"/>
<path d="M201.978 348.247V361.991H273.31L272.477 346.034C271.58 315.286 275.031 315.277 275.031 315.277C273.22 314.034 271.232 313.071 269.134 312.419L251.209 307.33C251.209 307.33 247.328 323.995 232.576 323.995C232.576 323.995 221.14 317.848 224.241 307.169L210.071 312.419C206.009 313.879 202.31 316.199 199.227 319.219C199.227 319.219 201.772 320.76 201.978 348.247Z" fill="#9756DF"/>
<path d="M250.937 282.253C250.176 284.042 249.064 285.66 247.665 287.011C244.026 290.538 239.754 293.346 235.073 295.289C229.319 297.645 220.644 297.977 216.073 293.21C212.371 289.376 210.346 283.57 208.742 278.589C205.614 268.895 205.65 258.314 206.447 248.253C206.626 245.959 206.859 243.665 207.245 241.39C210.83 219.448 229.597 219.493 229.597 219.493C243.785 218.875 256.726 225.577 258.904 240.521C259.747 246.237 258.644 252.383 258.349 258.108C258.231 262.319 257.534 266.495 256.278 270.516C254.907 274.638 252.64 278.302 250.937 282.253Z" fill="white"/>
<path d="M252.767 265.517C252.767 265.517 254.64 257.714 260.654 260.939C260.654 260.939 263.342 262.31 261.407 267.676C261.407 267.676 258.557 275.381 252.758 272.568L252.767 265.517Z" fill="white"/>
<path d="M205.011 243.898C204.007 213.786 232.607 215.228 232.607 215.228C260.713 216.384 262.111 229.115 262.111 229.115C265.508 245.242 260.65 260.957 260.65 260.957C254.672 259.649 253.659 267.64 253.659 267.64C254.287 254.837 253.238 254.067 253.238 254.067C247.99 254.032 242.749 253.673 237.545 252.992L237.142 244.033L234.928 252.508C226.053 252.171 217.228 251.008 208.569 249.032C208.569 249.032 204.984 249.283 204.984 260.159L205.011 243.898Z" fill="#5002A8"/>
<path d="M517.522 126.907C516.454 120.076 513.635 113.637 509.339 108.218C495.331 90.6312 465.262 85.5961 447.221 99.7339C427.925 114.911 414.239 150.193 437.057 166.508C439.758 168.402 442.658 169.994 445.706 171.256C444.882 175.091 443.017 181.515 439.361 183.951C439.361 183.951 453.046 185 458.182 174.929C478.491 178.701 502.591 173.63 511.956 156.885C517.107 147.794 519.067 137.241 517.522 126.907Z" fill="#6F5FA6"/>
<g style="mix-blend-mode:multiply">
<path d="M474.547 161.947C465.585 160.809 456.963 157.1 451.648 149.521C446.226 141.78 444.12 131.933 444.729 122.589C445.303 113.701 447.83 104.67 454.516 98.3988C457.014 96.1057 459.794 94.1398 462.788 92.5483C457.121 93.7212 451.796 96.1727 447.221 99.7158C427.925 114.893 414.239 150.175 437.057 166.49C439.758 168.384 442.658 169.976 445.706 171.238C444.882 175.073 443.017 181.496 439.361 183.933C439.361 183.933 453.046 184.982 458.182 174.911C478.491 178.683 502.591 173.612 511.956 156.867C512.88 155.215 513.705 153.509 514.43 151.76C503.559 160.648 488.251 163.685 474.547 161.947Z" fill="#5000AE"/>
</g>
<path d="M456.812 141.727C459.738 141.727 462.109 139.356 462.109 136.432C462.109 133.507 459.738 131.137 456.812 131.137C453.887 131.137 451.516 133.507 451.516 136.432C451.516 139.356 453.887 141.727 456.812 141.727Z" fill="white"/>
<path d="M478.851 135.697C478.851 136.744 478.541 137.768 477.959 138.639C477.377 139.509 476.549 140.188 475.582 140.589C474.614 140.989 473.549 141.094 472.521 140.89C471.494 140.686 470.55 140.181 469.809 139.441C469.068 138.7 468.564 137.757 468.36 136.73C468.155 135.703 468.26 134.638 468.661 133.671C469.062 132.703 469.741 131.876 470.612 131.294C471.483 130.712 472.507 130.402 473.555 130.402C474.25 130.402 474.939 130.539 475.582 130.805C476.224 131.071 476.808 131.461 477.3 131.953C477.792 132.444 478.182 133.028 478.448 133.671C478.714 134.313 478.851 135.001 478.851 135.697Z" fill="white"/>
<path d="M490.297 140.266C493.222 140.266 495.594 137.896 495.594 134.971C495.594 132.047 493.222 129.676 490.297 129.676C487.371 129.676 485 132.047 485 134.971C485 137.896 487.371 140.266 490.297 140.266Z" fill="white"/>
<path d="M285.123 103.309L202.543 109.786C199.854 109.786 197.276 110.854 195.375 112.754C193.474 114.654 192.406 117.232 192.406 119.919L198.832 160.388C198.844 163.063 199.914 165.625 201.807 167.515C203.701 169.405 206.266 170.47 208.942 170.477L212.841 170.718C212.841 170.718 215.153 179.445 210.609 183.987C210.609 183.987 224.133 180.717 226.311 171.552L278.688 174.768C280.02 174.768 281.338 174.506 282.569 173.996C283.799 173.486 284.917 172.739 285.858 171.797C286.8 170.855 287.546 169.737 288.055 168.507C288.564 167.276 288.825 165.958 288.824 164.626L295.259 113.442C295.257 110.755 294.188 108.179 292.288 106.279C290.387 104.379 287.81 103.311 285.123 103.309Z" fill="#5002A8"/>
<path d="M295.103 111.515C294.978 114.263 294.763 117.013 294.458 119.767C293.813 125.429 292.961 131.083 291.957 136.7C291.061 141.753 289.986 146.967 287.682 151.599C283.81 159.385 275.44 162.261 267.311 163.47C258.814 164.752 250.282 164.366 241.732 164.841C237.028 165.228 232.307 165.368 227.589 165.262C223.538 165.083 218.958 164.734 215.364 162.637C208.427 158.588 207.298 148.535 206.402 141.386C205.326 133.233 203.256 122.571 208.902 115.61C211.519 112.375 214.898 110.933 218.761 109.58C220.016 109.141 221.62 108.684 223.242 108.138L202.629 109.741C199.94 109.741 197.362 110.809 195.461 112.709C193.56 114.61 192.492 117.187 192.492 119.874L198.918 160.344C198.918 163.011 199.97 165.571 201.846 167.468C203.722 169.365 206.27 170.446 208.938 170.477L212.837 170.719C212.837 170.719 215.149 179.445 210.605 183.987C210.605 183.987 224.13 180.717 226.307 171.552L278.684 174.768C280.016 174.768 281.335 174.506 282.565 173.996C283.795 173.486 284.913 172.739 285.855 171.797C286.796 170.855 287.543 169.737 288.051 168.507C288.56 167.276 288.822 165.958 288.82 164.626L295.255 113.442C295.264 112.796 295.213 112.151 295.103 111.515Z" fill="#5002A8"/>
<path d="M275.181 130.268C275.181 130.541 275.127 130.812 275.022 131.065C274.917 131.318 274.763 131.547 274.569 131.74C274.375 131.934 274.144 132.087 273.891 132.19C273.638 132.294 273.367 132.347 273.093 132.346H214.595C214.043 132.346 213.515 132.127 213.125 131.737C212.735 131.348 212.516 130.819 212.516 130.268C212.516 129.716 212.735 129.188 213.125 128.798C213.515 128.408 214.043 128.189 214.595 128.189H273.093C273.367 128.188 273.638 128.241 273.891 128.345C274.144 128.449 274.375 128.601 274.569 128.795C274.763 128.988 274.917 129.217 275.022 129.47C275.127 129.723 275.181 129.994 275.181 130.268Z" fill="white"/>
<path d="M275.181 139.039C275.181 139.312 275.127 139.583 275.022 139.836C274.917 140.089 274.763 140.318 274.569 140.511C274.375 140.705 274.144 140.858 273.891 140.961C273.638 141.065 273.367 141.118 273.093 141.117H214.595C214.043 141.117 213.515 140.898 213.125 140.508C212.735 140.119 212.516 139.59 212.516 139.039C212.516 138.487 212.735 137.959 213.125 137.569C213.515 137.179 214.043 136.96 214.595 136.96H273.093C273.367 136.959 273.638 137.012 273.891 137.116C274.144 137.22 274.375 137.372 274.569 137.566C274.763 137.759 274.917 137.988 275.022 138.241C275.127 138.494 275.181 138.765 275.181 139.039Z" fill="white"/>
<path d="M275.181 147.81C275.181 148.083 275.127 148.354 275.022 148.607C274.917 148.86 274.763 149.089 274.569 149.282C274.375 149.476 274.144 149.629 273.891 149.732C273.638 149.836 273.367 149.889 273.093 149.888H214.595C214.043 149.888 213.515 149.669 213.125 149.279C212.735 148.889 212.516 148.361 212.516 147.81C212.516 147.258 212.735 146.73 213.125 146.34C213.515 145.95 214.043 145.731 214.595 145.731H273.093C273.367 145.73 273.638 145.783 273.891 145.887C274.144 145.991 274.375 146.143 274.569 146.337C274.763 146.53 274.917 146.759 275.022 147.012C275.127 147.265 275.181 147.536 275.181 147.81Z" fill="white"/>
<path d="M81.8345 102.932C89.2016 94.2419 102.502 95.2364 112.746 96.1592C128.878 97.6286 145.082 98.0228 161.071 100.549C183.227 104.052 188.568 117.572 188.55 138.178C188.55 150.256 185.279 163.417 173.924 169.536C172.541 170.278 171.12 170.944 169.666 171.534C169.765 175.019 171.082 180.135 177.15 183.862C177.15 183.862 161.582 185.564 157.755 174.903C142.698 177.59 125.643 175.888 111.742 175.288C93.4857 174.491 75.3547 168.497 71.7518 148.338C68.9107 132.427 73.7146 112.474 81.8345 102.932Z" fill="#6C3D85"/>
<path d="M81.3055 103.587C79.4338 107.216 78.1654 111.126 77.5502 115.162C76.8621 120.7 76.778 126.297 77.2993 131.853C78.0163 140.911 80.463 149.978 88.1259 155.604C95.2241 160.81 104.115 162.584 112.575 164.277C120.035 165.79 127.63 166.535 135.241 166.499C142.698 166.436 150.549 165.603 157.325 162.243C160.548 160.725 163.403 158.526 165.694 155.798C167.984 153.069 169.654 149.876 170.589 146.439C172.453 139.275 173.134 131.855 172.606 124.471C172.104 117.411 170.527 109.939 166.332 104.071C165.572 103.017 164.73 102.026 163.814 101.105C183.665 105.271 188.568 118.459 188.55 138.232C188.55 150.31 185.279 163.471 173.923 169.59C172.541 170.331 171.12 170.998 169.666 171.588C169.765 175.073 171.082 180.189 177.15 183.916C177.15 183.916 161.582 185.618 157.755 174.957C142.698 177.644 125.643 175.942 111.742 175.342C93.4854 174.544 75.3544 168.551 71.7515 148.392C68.9732 132.776 73.5082 113.37 81.3055 103.587Z" fill="#5A3D85"/>
<path d="M124.344 125.241C124.343 125.573 124.407 125.901 124.533 126.207C124.659 126.514 124.844 126.792 125.078 127.027C125.312 127.262 125.59 127.448 125.896 127.575C126.203 127.702 126.531 127.768 126.862 127.768H161.161C161.493 127.768 161.821 127.702 162.127 127.575C162.433 127.448 162.711 127.262 162.945 127.027C163.179 126.792 163.365 126.514 163.491 126.207C163.617 125.901 163.681 125.573 163.68 125.241C163.68 124.573 163.415 123.933 162.942 123.461C162.47 122.989 161.829 122.724 161.161 122.724H126.862C126.194 122.724 125.554 122.989 125.081 123.461C124.609 123.933 124.344 124.573 124.344 125.241Z" fill="white"/>
<path d="M95.8125 125.241C95.8113 125.573 95.8756 125.901 96.0016 126.207C96.1277 126.514 96.313 126.792 96.547 127.027C96.781 127.262 97.059 127.448 97.3651 127.575C97.6713 127.702 97.9995 127.768 98.331 127.768H116.91C117.242 127.768 117.57 127.702 117.876 127.575C118.182 127.448 118.46 127.262 118.694 127.027C118.928 126.792 119.113 126.514 119.239 126.207C119.365 125.901 119.43 125.573 119.429 125.241C119.429 124.573 119.163 123.933 118.691 123.461C118.219 122.989 117.578 122.724 116.91 122.724H98.331C97.663 122.724 97.0224 122.989 96.5501 123.461C96.0778 123.933 95.8125 124.573 95.8125 125.241Z" fill="white"/>
<path d="M136.695 137.256C136.695 137.587 136.761 137.915 136.888 138.221C137.015 138.527 137.201 138.805 137.436 139.039C137.671 139.273 137.95 139.458 138.256 139.584C138.563 139.71 138.891 139.775 139.223 139.773H161.163C161.831 139.773 162.471 139.508 162.944 139.036C163.416 138.564 163.681 137.924 163.681 137.256C163.681 136.588 163.416 135.948 162.944 135.476C162.471 135.004 161.831 134.738 161.163 134.738H139.223C138.891 134.737 138.563 134.801 138.256 134.927C137.95 135.053 137.671 135.239 137.436 135.473C137.201 135.706 137.015 135.984 136.888 136.29C136.761 136.596 136.695 136.925 136.695 137.256Z" fill="white"/>
<path d="M95.8125 137.256C95.8125 137.924 96.0778 138.564 96.5501 139.036C97.0224 139.508 97.663 139.773 98.3309 139.773H129.915C130.582 139.773 131.223 139.508 131.695 139.036C132.168 138.564 132.433 137.924 132.433 137.256C132.433 136.588 132.168 135.948 131.695 135.476C131.223 135.004 130.582 134.738 129.915 134.738H98.3309C97.663 134.738 97.0224 135.004 96.5501 135.476C96.0778 135.948 95.8125 136.588 95.8125 137.256Z" fill="white"/>
<path d="M124.344 148.562C124.344 149.23 124.609 149.87 125.081 150.342C125.554 150.814 126.194 151.08 126.862 151.08H142.753C143.421 151.08 144.061 150.814 144.533 150.342C145.006 149.87 145.271 149.23 145.271 148.562C145.272 148.231 145.208 147.902 145.082 147.596C144.956 147.29 144.771 147.011 144.537 146.776C144.303 146.541 144.025 146.355 143.718 146.228C143.412 146.101 143.084 146.036 142.753 146.036H126.862C126.531 146.036 126.203 146.101 125.896 146.228C125.59 146.355 125.312 146.541 125.078 146.776C124.844 147.011 124.659 147.29 124.533 147.596C124.407 147.902 124.343 148.231 124.344 148.562Z" fill="white"/>
<path d="M147.258 148.562C147.258 149.23 147.523 149.87 147.995 150.342C148.468 150.814 149.108 151.08 149.776 151.08H161.168C161.835 151.08 162.476 150.814 162.948 150.342C163.421 149.87 163.686 149.23 163.686 148.562C163.687 148.231 163.623 147.902 163.497 147.596C163.371 147.29 163.185 147.011 162.951 146.776C162.718 146.541 162.439 146.355 162.133 146.228C161.827 146.101 161.499 146.036 161.168 146.036H149.794C149.463 146.036 149.134 146.101 148.828 146.228C148.522 146.355 148.244 146.541 148.01 146.776C147.776 147.011 147.591 147.29 147.465 147.596C147.339 147.902 147.275 148.231 147.276 148.562H147.258Z" fill="white"/>
<path d="M95.8125 148.562C95.8125 149.23 96.0778 149.87 96.5501 150.342C97.0224 150.814 97.663 151.08 98.331 151.08H116.91C117.578 151.08 118.219 150.814 118.691 150.342C119.163 149.87 119.429 149.23 119.429 148.562C119.43 148.231 119.365 147.902 119.239 147.596C119.113 147.29 118.928 147.011 118.694 146.776C118.46 146.541 118.182 146.355 117.876 146.228C117.57 146.101 117.242 146.036 116.91 146.036H98.331C97.9995 146.036 97.6713 146.101 97.3651 146.228C97.059 146.355 96.781 146.541 96.547 146.776C96.313 147.011 96.1277 147.29 96.0016 147.596C95.8756 147.902 95.8113 148.231 95.8125 148.562Z" fill="white"/>
<path d="M421.507 118.808C421.516 115.645 420.752 112.527 419.282 109.726C417.811 106.924 415.679 104.524 413.07 102.734C410.461 100.943 407.454 99.8164 404.311 99.4514C401.167 99.0864 397.982 99.494 395.032 100.639C394.07 95.4733 391.44 90.7654 387.546 87.2363C383.651 83.7072 378.707 81.5513 373.471 81.099C368.234 80.6467 362.993 81.9227 358.551 84.7318C354.109 87.5408 350.71 91.728 348.876 96.6521C347.214 95.4667 345.237 94.8045 343.196 94.7503C341.156 94.6962 339.146 95.2526 337.424 96.3481C335.702 97.4437 334.347 99.0284 333.532 100.899C332.717 102.77 332.48 104.841 332.851 106.848C331.179 105.922 329.332 105.355 327.429 105.181C325.525 105.007 323.606 105.231 321.794 105.838C319.982 106.445 318.316 107.423 316.902 108.708C315.487 109.994 314.356 111.559 313.58 113.305C312.803 115.051 312.398 116.939 312.391 118.85C312.383 120.76 312.773 122.652 313.536 124.404C314.299 126.155 315.418 127.73 316.822 129.026C318.227 130.322 319.885 131.313 321.693 131.934C318.774 135.288 317.086 139.536 316.907 143.978C316.728 148.419 318.069 152.789 320.708 156.367C323.348 159.945 327.128 162.516 331.426 163.658C335.723 164.799 340.282 164.443 344.35 162.646C344.697 167.196 346.633 171.478 349.819 174.746C353.005 178.013 357.238 180.057 361.779 180.522C366.319 180.986 370.879 179.84 374.66 177.285C378.442 174.73 381.205 170.928 382.467 166.544C386.351 169.944 391.427 171.663 396.579 171.322C401.73 170.98 406.535 168.608 409.937 164.725C413.338 160.842 415.057 155.768 414.716 150.618C414.375 145.468 412.001 140.665 408.117 137.265C412.007 135.986 415.394 133.514 417.797 130.201C420.201 126.888 421.499 122.901 421.507 118.808Z" fill="#5002A8"/>
<g style="mix-blend-mode:multiply">
<path d="M421.499 118.808C421.492 114.46 420.029 110.24 417.345 106.819C414.66 103.398 410.907 100.973 406.684 99.9312C410.861 103.855 413.944 109.688 414.105 115.44C414.266 121.192 412.42 127.983 407.67 131.566C405.609 133.116 401.396 135.079 398.77 134.81C402.517 139.621 403.861 145.651 398.421 150.515C392.335 155.945 384.977 155.353 380.111 149.557C380.236 154.467 378.605 160.828 374.249 163.587C370.419 165.952 365.925 167.012 361.442 166.606C352.928 165.567 347.998 159.376 347.227 151.143C347.272 151.6 344.539 153.329 344.126 153.624C343.072 154.363 341.927 154.965 340.721 155.416C332.592 158.364 322.195 151.564 323.083 142.712C323.411 139.458 324.363 136.297 325.888 133.403C326.551 132.238 328.46 129.327 330.118 129.434C319.363 128.735 316.827 110.62 328.89 105.334C327.94 105.124 326.969 105.019 325.995 105.02C322.712 105.013 319.535 106.177 317.034 108.303C314.533 110.429 312.873 113.378 312.354 116.618C311.834 119.858 312.488 123.178 314.199 125.979C315.909 128.78 318.564 130.879 321.685 131.898C318.745 135.249 317.039 139.503 316.85 143.956C316.66 148.409 317.999 152.793 320.643 156.381C323.287 159.969 327.078 162.547 331.388 163.686C335.698 164.826 340.269 164.459 344.342 162.646C344.689 167.196 346.625 171.478 349.811 174.746C352.997 178.013 357.23 180.057 361.771 180.522C366.311 180.986 370.871 179.84 374.652 177.285C378.434 174.73 381.197 170.928 382.459 166.544C386.343 169.944 391.419 171.663 396.571 171.322C401.722 170.98 406.527 168.608 409.929 164.725C413.33 160.842 415.049 155.768 414.708 150.618C414.367 145.468 411.993 140.665 408.109 137.265C411.999 135.986 415.386 133.514 417.789 130.201C420.193 126.888 421.491 122.901 421.499 118.808Z" fill="#682DAC"/>
</g>
<path d="M335.373 176.005C333.509 178.236 329.628 178.075 326.706 175.638C323.784 173.201 322.915 169.411 324.779 167.18C326.643 164.949 330.515 165.111 333.446 167.548C336.377 169.985 337.237 173.774 335.373 176.005Z" fill="#5002A8"/>
<path d="M325.264 180.923C323.848 182.617 320.908 182.491 318.685 180.646C316.463 178.8 315.808 175.924 317.224 174.231C318.64 172.538 321.58 172.654 323.803 174.509C326.026 176.363 326.671 179.23 325.264 180.923Z" fill="#5002A8"/>
<path d="M316.301 183.145C315.306 184.337 313.226 184.247 311.658 182.948C310.09 181.649 309.633 179.615 310.627 178.415C311.622 177.214 313.702 177.313 315.27 178.612C316.838 179.911 317.295 181.945 316.301 183.145Z" fill="#5002A8"/>
<g style="mix-blend-mode:multiply">
<path d="M364.248 111.211C364.243 108.91 364.876 106.653 366.076 104.69C367.276 102.727 368.997 101.134 371.048 100.089C373.098 99.0446 375.398 98.588 377.693 98.7704C379.987 98.9527 382.186 99.7669 384.046 101.123C382.989 99.6558 381.627 98.4361 380.052 97.5479C378.478 96.6597 376.729 96.1243 374.927 95.9786C373.125 95.8329 371.312 96.0805 369.616 96.7042C367.919 97.3279 366.378 98.3128 365.099 99.5908C363.821 100.869 362.836 102.409 362.212 104.105C361.588 105.802 361.34 107.613 361.486 109.415C361.632 111.216 362.167 112.964 363.056 114.538C363.944 116.112 365.164 117.475 366.632 118.53C365.081 116.405 364.247 113.841 364.248 111.211Z" fill="#682DAC"/>
</g>
<g style="mix-blend-mode:multiply">
<path d="M343.091 140.902C345.554 140.443 348.099 140.978 350.168 142.391C352.237 143.803 353.663 145.977 354.132 148.437C354.509 150.399 354.249 152.431 353.389 154.234C354.354 153.246 355.092 152.059 355.55 150.756C356.008 149.452 356.175 148.064 356.039 146.69C355.903 145.315 355.468 143.987 354.764 142.798C354.059 141.61 353.103 140.59 351.963 139.81C350.822 139.031 349.524 138.51 348.161 138.285C346.797 138.06 345.401 138.137 344.071 138.509C342.74 138.881 341.507 139.54 340.458 140.44C339.409 141.339 338.57 142.457 338 143.716C339.355 142.262 341.138 141.276 343.091 140.902Z" fill="#682DAC"/>
</g>
<path d="M355.414 132.74C355.414 133.788 355.103 134.811 354.521 135.682C353.939 136.553 353.112 137.231 352.144 137.632C351.176 138.033 350.111 138.138 349.084 137.933C348.056 137.729 347.112 137.225 346.372 136.484C345.631 135.744 345.126 134.8 344.922 133.773C344.718 132.746 344.823 131.682 345.224 130.714C345.624 129.746 346.303 128.919 347.174 128.338C348.045 127.756 349.069 127.445 350.117 127.445C351.521 127.448 352.867 128.006 353.86 128.999C354.853 129.991 355.412 131.337 355.414 132.74Z" fill="white"/>
<path d="M372.156 132.006C372.158 133.053 371.849 134.078 371.268 134.95C370.687 135.822 369.86 136.502 368.893 136.904C367.925 137.306 366.86 137.412 365.831 137.209C364.803 137.006 363.859 136.502 363.117 135.762C362.375 135.022 361.87 134.078 361.665 133.051C361.46 132.024 361.564 130.959 361.965 129.99C362.365 129.022 363.044 128.195 363.916 127.613C364.787 127.03 365.811 126.72 366.859 126.72C368.263 126.72 369.608 127.276 370.602 128.267C371.595 129.258 372.154 130.603 372.156 132.006Z" fill="white"/>
<path d="M388.89 131.289C388.89 132.336 388.58 133.36 387.998 134.23C387.416 135.101 386.589 135.78 385.621 136.181C384.653 136.581 383.588 136.686 382.56 136.482C381.533 136.278 380.589 135.773 379.848 135.033C379.107 134.292 378.603 133.349 378.399 132.322C378.194 131.294 378.299 130.23 378.7 129.262C379.101 128.295 379.78 127.468 380.651 126.886C381.522 126.304 382.546 125.994 383.594 125.994C384.998 125.996 386.344 126.555 387.336 127.547C388.329 128.54 388.888 129.885 388.89 131.289Z" fill="white"/>
</g>
<defs>
<clipPath id="clip0_909_6670">
<rect width="449" height="281" fill="white" transform="translate(70 81)"/>
</clipPath>
</defs>
</svg>
