<svg width="461" height="197" viewBox="0 0 461 197" fill="none" xmlns="http://www.w3.org/2000/svg">
<rect width="461" height="197" rx="13" fill="#E4F1FA"/>
<g filter="url(#filter0_d_544_4120)">
<circle r="27" transform="matrix(-1 0 0 1 398 47)" fill="#4A1B80"/>
<circle r="26.5" transform="matrix(-1 0 0 1 398 47)" stroke="#7E4AB8"/>
</g>
<g clip-path="url(#clip0_544_4120)">
<path d="M402.189 55.2213L409.604 47.8064L402.189 40.3915L404.446 38.1348L414.117 47.8064L404.446 57.4781L402.189 55.2213ZM393.807 55.2213L386.392 47.8064L393.807 40.3915L391.55 38.1348L381.878 47.8064L391.55 57.4781L393.807 55.2213Z" fill="white"/>
</g>
<path d="M51.375 41.825V39H39.75V57H51.375V54.175H42.75V49.075H49.875V46.275H42.75V41.825H51.375ZM65.6422 44.5C64.3922 43.3 62.8172 43.05 61.2922 43.15C60.0672 43.2 58.7172 43.65 57.8422 44.675C57.7422 44.8 57.6422 44.925 57.5422 45.025V43.5H54.8922V57H57.9172V51.125V51.1C57.9172 50.125 57.9172 49.1 58.0672 48.45C58.2172 47.65 58.5922 47 59.1172 46.575C59.6172 46.175 60.2172 45.975 60.8922 45.95C61.8422 45.925 62.6172 46.2 63.1422 46.725C64.0172 47.525 64.2172 49.025 64.2172 50.6V57H67.2672V50.475C67.2672 48.3 67.2172 45.925 65.6422 44.5ZM79.7234 39V44.25C78.6984 43.55 77.4484 43.125 76.0984 43.125C74.2484 43.125 72.4734 43.85 71.3234 45.275C70.2734 46.625 69.7734 48.4 69.7734 50.25C69.7734 52.075 70.1984 53.8 71.3234 55.225C72.4484 56.6 74.1984 57.375 75.9984 57.375C77.5734 57.375 79.0234 56.925 80.0984 55.95V57H82.7484V39H79.7234ZM79.0984 53.575C78.4484 54.325 77.5234 54.675 76.4484 54.675C75.3984 54.675 74.3484 54.3 73.7234 53.375C73.1734 52.6 72.9734 51.45 72.9734 50.25C72.9734 49.025 73.2234 47.9 73.7734 47.125C74.3984 46.2 75.3734 45.825 76.5484 45.825C77.5734 45.825 78.4984 46.175 79.0984 46.9C79.7734 47.725 80.0734 48.975 80.0734 50.25C80.0734 51.525 79.7734 52.8 79.0984 53.575ZM97.675 45.275C96.525 43.85 94.75 43.125 92.9 43.125C91.4 43.125 90 43.65 88.925 44.525V43.5H86.25V63H89.275V56.25C90.3 57 91.6 57.375 93 57.375C94.8 57.375 96.55 56.6 97.675 55.225C98.8 53.8 99.225 52.075 99.225 50.25C99.225 48.4 98.725 46.625 97.675 45.275ZM95.275 53.375C94.65 54.3 93.6 54.675 92.55 54.675C91.475 54.675 90.55 54.325 89.9 53.575C89.225 52.8 88.925 51.525 88.925 50.25C88.925 48.975 89.225 47.725 89.9 46.9C90.5 46.175 91.425 45.825 92.45 45.825C93.625 45.825 94.6 46.2 95.225 47.125C95.775 47.9 96.025 49.025 96.025 50.25C96.025 51.45 95.825 52.6 95.275 53.375ZM107.952 57.375C109.952 57.375 111.802 56.625 113.052 55.125C114.202 53.7 114.677 52.125 114.677 50.25C114.677 48.45 114.227 46.775 113.052 45.35C111.827 43.875 109.927 43.125 107.952 43.125C105.977 43.125 104.052 43.9 102.852 45.35C101.752 46.675 101.227 48.375 101.227 50.25C101.227 52.075 101.702 53.725 102.852 55.125C104.077 56.6 105.952 57.375 107.952 57.375ZM111.502 50.25C111.502 51.35 111.277 52.475 110.652 53.3C110.052 54.125 109.027 54.55 107.952 54.55C106.852 54.55 105.852 54.125 105.252 53.3C104.602 52.475 104.427 51.35 104.427 50.25C104.427 49.125 104.602 48 105.252 47.175C105.852 46.35 106.852 45.95 107.952 45.95C109.027 45.95 110.052 46.35 110.652 47.175C111.277 48 111.502 49.125 111.502 50.25ZM117.672 38.725V41.5H120.672V38.725H117.672ZM117.672 43.5V57H120.672V43.5H117.672ZM135.205 44.5C133.955 43.3 132.38 43.05 130.855 43.15C129.63 43.2 128.28 43.65 127.405 44.675C127.305 44.8 127.205 44.925 127.105 45.025V43.5H124.455V57H127.48V51.125V51.1C127.48 50.125 127.48 49.1 127.63 48.45C127.78 47.65 128.155 47 128.68 46.575C129.18 46.175 129.78 45.975 130.455 45.95C131.405 45.925 132.18 46.2 132.705 46.725C133.58 47.525 133.78 49.025 133.78 50.6V57H136.83V50.475C136.83 48.3 136.78 45.925 135.205 44.5ZM144.036 45.85H148.011V43.5H144.036V39.75H141.036V43.5H138.586V45.85H141.036V51.475C141.036 53.025 140.911 54.35 141.586 55.4C142.286 56.475 143.086 56.9 144.311 57.1C145.286 57.275 146.986 57.275 148.011 57V54.475C147.286 54.575 146.461 54.625 145.786 54.575C145.236 54.525 144.636 54.3 144.311 53.75C143.986 53.225 144.036 52.375 144.036 51.325V45.85ZM161.664 47.05C161.189 45.675 160.114 44.425 158.814 43.8C157.889 43.325 156.889 43.125 155.939 43.125C155.014 43.125 154.039 43.175 153.014 43.625C151.664 44.225 150.639 45.5 150.639 47.125C150.639 47.75 150.839 48.725 151.364 49.325C151.914 49.975 152.839 50.425 153.614 50.75C154.139 50.925 154.639 51.05 156.889 51.7C157.964 52 159.039 52.25 159.039 53.2C159.039 53.65 158.839 53.975 158.414 54.25C157.964 54.6 156.964 54.75 156.364 54.75C155.389 54.75 154.439 54.5 153.739 53.8C153.364 53.4 153.039 52.75 152.864 52.15L150.164 52.875C150.389 53.75 150.739 54.675 151.614 55.625C152.814 56.95 154.439 57.375 156.314 57.375C157.614 57.375 158.764 57.2 159.889 56.475C161.039 55.775 161.764 54.5 161.764 53.175C161.764 51 160.064 49.625 157.589 48.95L155.014 48.225C154.064 47.975 153.364 47.75 153.364 47.025C153.364 46.2 154.589 45.675 155.789 45.725C157.139 45.775 158.289 46.35 158.839 47.75L161.664 47.05Z" fill="#4A1B80"/>
<path d="M139.8 157.521H107.109C105.453 157.521 104.109 158.864 104.109 160.521V162.271C104.109 163.928 105.453 165.271 107.109 165.271H139.8C141.457 165.271 142.8 163.928 142.8 162.271V160.521C142.8 158.864 141.457 157.521 139.8 157.521Z" fill="#CDCDCD"/>
<path d="M165.125 157.521H154.125C152.468 157.521 151.125 158.864 151.125 160.521V162.271C151.125 163.928 152.468 165.271 154.125 165.271H165.125C166.782 165.271 168.125 163.928 168.125 162.271V160.521C168.125 158.864 166.782 157.521 165.125 157.521Z" fill="#CDCDCD"/>
<path d="M243.549 157.521H185.281C183.624 157.521 182.281 158.864 182.281 160.521V162.271C182.281 163.928 183.624 165.271 185.281 165.271H243.549C245.206 165.271 246.549 163.928 246.549 162.271V160.521C246.549 158.864 245.206 157.521 243.549 157.521Z" fill="#CDCDCD"/>
<path d="M309.159 157.521H259.375C257.718 157.521 256.375 158.864 256.375 160.521V162.271C256.375 163.928 257.718 165.271 259.375 165.271H309.159C310.816 165.271 312.159 163.928 312.159 162.271V160.521C312.159 158.864 310.816 157.521 309.159 157.521Z" fill="#CDCDCD"/>
<path d="M341.178 157.521H329.961C328.304 157.521 326.961 158.864 326.961 160.521V162.271C326.961 163.928 328.304 165.271 329.961 165.271H341.178C342.834 165.271 344.178 163.928 344.178 162.271V160.521C344.178 158.864 342.834 157.521 341.178 157.521Z" fill="#CDCDCD"/>
<path d="M398.41 157.521H357.875C356.218 157.521 354.875 158.864 354.875 160.521V162.271C354.875 163.928 356.218 165.271 357.875 165.271H398.41C400.067 165.271 401.41 163.928 401.41 162.271V160.521C401.41 158.864 400.067 157.521 398.41 157.521Z" fill="#CDCDCD"/>
<path d="M81.5012 118.944H42C40.3431 118.944 39 120.287 39 121.944V123.695C39 125.352 40.3431 126.695 42 126.695H81.5012C83.1581 126.695 84.5012 125.352 84.5012 123.695V121.944C84.5012 120.287 83.1581 118.944 81.5012 118.944Z" fill="#CDCDCD"/>
<path d="M207.353 118.944H103.016C101.359 118.944 100.016 120.287 100.016 121.944V123.695C100.016 125.352 101.359 126.695 103.016 126.695H207.353C209.01 126.695 210.353 125.352 210.353 123.695V121.944C210.353 120.287 209.01 118.944 207.353 118.944Z" fill="#CDCDCD"/>
<path d="M237.293 118.944H228.133C226.476 118.944 225.133 120.287 225.133 121.944V123.695C225.133 125.352 226.476 126.695 228.133 126.695H237.293C238.95 126.695 240.293 125.352 240.293 123.695V121.944C240.293 120.287 238.95 118.944 237.293 118.944Z" fill="#CDCDCD"/>
<path d="M344.258 118.944H256.992C255.335 118.944 253.992 120.287 253.992 121.944V123.695C253.992 125.352 255.335 126.695 256.992 126.695H344.258C345.915 126.695 347.258 125.352 347.258 123.695V121.944C347.258 120.287 345.915 118.944 344.258 118.944Z" fill="#CDCDCD"/>
<path d="M51.4702 99H42C40.3431 99 39 100.343 39 102V103.751C39 105.407 40.3431 106.751 42 106.751H51.4702C53.1271 106.751 54.4702 105.407 54.4702 103.751V102C54.4702 100.343 53.1271 99 51.4702 99Z" fill="#CDCDCD"/>
<path d="M51.4702 137.599H42C40.3431 137.599 39 138.942 39 140.599V142.349C39 144.006 40.3431 145.349 42 145.349H51.4702C53.1271 145.349 54.4702 144.006 54.4702 142.349V140.599C54.4702 138.942 53.1271 137.599 51.4702 137.599Z" fill="#CDCDCD"/>
<path d="M81.8843 99H72.4141C70.7572 99 69.4141 100.343 69.4141 102V103.751C69.4141 105.407 70.7572 106.751 72.4141 106.751H81.8843C83.5411 106.751 84.8843 105.407 84.8843 103.751V102C84.8843 100.343 83.5411 99 81.8843 99Z" fill="#CDCDCD"/>
<path d="M168.22 99H158.75C157.093 99 155.75 100.343 155.75 102V103.751C155.75 105.407 157.093 106.751 158.75 106.751H168.22C169.877 106.751 171.22 105.407 171.22 103.751V102C171.22 100.343 169.877 99 168.22 99Z" fill="#CDCDCD"/>
<path d="M143.066 99H101.281C99.6244 99 98.2812 100.343 98.2812 102V103.751C98.2812 105.407 99.6244 106.751 101.281 106.751H143.066C144.723 106.751 146.066 105.407 146.066 103.751V102C146.066 100.343 144.723 99 143.066 99Z" fill="#CDCDCD"/>
<path d="M224.728 99H188.523C186.867 99 185.523 100.343 185.523 102V103.751C185.523 105.407 186.867 106.751 188.523 106.751H224.728C226.385 106.751 227.728 105.407 227.728 103.751V102C227.728 100.343 226.385 99 224.728 99Z" fill="#CDCDCD"/>
<path d="M299.518 99H243.906C242.249 99 240.906 100.343 240.906 102V103.751C240.906 105.407 242.249 106.751 243.906 106.751H299.518C301.175 106.751 302.518 105.407 302.518 103.751V102C302.518 100.343 301.175 99 299.518 99Z" fill="#CDCDCD"/>
<path d="M327.919 99H315.266C313.609 99 312.266 100.343 312.266 102V103.751C312.266 105.407 313.609 106.751 315.266 106.751H327.919C329.576 106.751 330.919 105.407 330.919 103.751V102C330.919 100.343 329.576 99 327.919 99Z" fill="#CDCDCD"/>
<path d="M366.352 99H344.367C342.71 99 341.367 100.343 341.367 102V103.751C341.367 105.407 342.71 106.751 344.367 106.751H366.352C368.009 106.751 369.352 105.407 369.352 103.751V102C369.352 100.343 368.009 99 366.352 99Z" fill="#CDCDCD"/>
<path d="M421.995 99H383.32C381.663 99 380.32 100.343 380.32 102V103.751C380.32 105.407 381.663 106.751 383.32 106.751H421.995C423.652 106.751 424.995 105.407 424.995 103.751V102C424.995 100.343 423.652 99 421.995 99Z" fill="#CDCDCD"/>
<defs>
<filter id="filter0_d_544_4120" x="356" y="12" width="84" height="84" filterUnits="userSpaceOnUse" color-interpolation-filters="sRGB">
<feFlood flood-opacity="0" result="BackgroundImageFix"/>
<feColorMatrix in="SourceAlpha" type="matrix" values="0 0 0 0 0 0 0 0 0 0 0 0 0 0 0 0 0 0 127 0" result="hardAlpha"/>
<feOffset dy="7"/>
<feGaussianBlur stdDeviation="7.5"/>
<feComposite in2="hardAlpha" operator="out"/>
<feColorMatrix type="matrix" values="0 0 0 0 0.1 0 0 0 0 0.1 0 0 0 0 0.1 0 0 0 0.13 0"/>
<feBlend mode="normal" in2="BackgroundImageFix" result="effect1_dropShadow_544_4120"/>
<feBlend mode="normal" in="SourceGraphic" in2="effect1_dropShadow_544_4120" result="shape"/>
</filter>
<clipPath id="clip0_544_4120">
<rect width="38.6866" height="38.6866" fill="white" transform="matrix(-1 0 0 1 417.344 28.4629)"/>
</clipPath>
</defs>
</svg>
